<svg width="71" height="217" viewBox="0 0 71 217" fill="none" xmlns="http://www.w3.org/2000/svg">
<path d="M42.6594 216.187C44.4787 216.846 46.4807 215.906 47.131 214.087L57.7293 184.456C58.3797 182.637 57.4321 180.629 55.6129 179.97C53.7937 179.312 51.7917 180.251 51.1413 182.07L41.7206 208.409L15.3686 198.866C13.5494 198.207 11.5474 199.147 10.8971 200.966C10.2467 202.784 11.1942 204.792 13.0135 205.451L42.6594 216.187ZM67.2509 0.634516C25.7138 20.778 4.02479 43.8471 0.799454 77.8948C-2.36213 111.27 12.3847 154.423 40.6751 214.379L46.9989 211.41C18.6303 151.288 4.80828 109.793 7.76455 78.5855C10.6571 48.051 29.7725 26.605 70.3228 6.94001L67.2509 0.634516Z" fill="black"/>
</svg>
