<svg width="527" height="462" viewBox="0 0 527 462" fill="none" xmlns="http://www.w3.org/2000/svg">
<g clip-path="url(#clip0_36_211)">
<path d="M284.348 357.462H243.349V362.057H284.348V357.462Z" fill="#010002"/>
<path d="M396.095 331.995L370.284 297.749L370.359 297.685H370.227L370.112 297.531L369.915 297.685H334.051L338.857 284.3L295.027 274.795L289.953 259.215L229.349 276.286L237.802 308.285L201.967 336.765V338.3L192 368.7L201.967 361.431V458.88H324.081V458.587L370.266 417.505V358.046L396.095 331.995ZM390.025 331.58L349.129 372.833L324.728 339.485L366.88 300.873L390.025 331.58ZM358.538 302.276L320.888 336.765H319.99L332.394 302.276H358.538ZM315.109 336.765H254.913L276.927 275.57L332.764 287.684L315.109 336.765ZM286.95 264.838L289.827 273.663L273.959 270.22L250.059 336.665L234.953 279.486L286.95 264.838ZM239.284 313.875L245.329 336.765H210.757L239.284 313.875ZM319.479 454.284H206.559V341.361H319.479V454.284ZM365.674 415.446L324.081 452.433V346.378L348.596 379.89L365.674 362.679V415.446Z" fill="#010002"/>
</g>
<rect x="2.5" y="100.5" width="159" height="65" fill="white" stroke="black" stroke-width="5"/>
<rect x="2.5" y="-2.5" width="159" height="65" transform="matrix(-1 0 0 1 526.638 103.111)" fill="white" stroke="black" stroke-width="5"/>
<rect x="2.5" y="-2.5" width="244" height="65" transform="matrix(-1 0 0 1 390 6)" fill="white" stroke="black" stroke-width="5"/>
<path d="M262.586 247.414C263.367 248.195 264.633 248.195 265.414 247.414L278.142 234.686C278.923 233.905 278.923 232.639 278.142 231.858C277.361 231.077 276.095 231.077 275.314 231.858L264 243.171L252.686 231.858C251.905 231.077 250.639 231.077 249.858 231.858C249.077 232.639 249.077 233.905 249.858 234.686L262.586 247.414ZM172 133C194.947 133 211.97 134.563 224.631 138.233C237.225 141.884 245.399 147.586 250.828 155.848C256.31 164.19 259.144 175.362 260.571 190.253C261.998 205.137 262 223.465 262 246L266 246C266 223.535 266.002 204.988 264.553 189.872C263.105 174.763 260.19 162.81 254.171 153.652C248.101 144.414 239.025 138.241 225.744 134.391C212.53 130.561 195.052 129 172 129V133Z" fill="black"/>
<path d="M266.053 247.525C265.272 248.306 264.005 248.306 263.224 247.525L250.496 234.797C249.715 234.016 249.715 232.75 250.496 231.969C251.277 231.187 252.544 231.187 253.325 231.969L264.638 243.282L275.952 231.969C276.733 231.188 277.999 231.188 278.781 231.969C279.562 232.75 279.562 234.016 278.781 234.797L266.053 247.525ZM356.638 133.111C333.691 133.111 316.668 134.674 304.008 138.344C291.413 141.995 283.239 147.697 277.81 155.959C272.328 164.301 269.494 175.473 268.067 190.364C266.64 205.248 266.638 223.576 266.638 246.111L262.638 246.111C262.638 223.646 262.636 205.099 264.085 189.982C265.533 174.874 268.449 162.921 274.467 153.762C280.537 144.525 289.613 138.352 302.894 134.502C316.108 130.672 333.586 129.111 356.638 129.111V133.111Z" fill="black"/>
<path d="M61.2128 126.864C61.2128 128.656 60.7808 130.336 59.9167 131.904C59.0848 133.472 57.7568 134.736 55.9328 135.696C54.1408 136.656 51.8688 137.136 49.1168 137.136H43.5008V150H36.7808V116.496H49.1168C51.7088 116.496 53.9168 116.944 55.7408 117.84C57.5648 118.736 58.9248 119.968 59.8208 121.536C60.7488 123.104 61.2128 124.88 61.2128 126.864ZM48.8288 131.712C50.6848 131.712 52.0608 131.296 52.9568 130.464C53.8528 129.6 54.3008 128.4 54.3008 126.864C54.3008 123.6 52.4768 121.968 48.8288 121.968H43.5008V131.712H48.8288ZM77.6959 116.496C81.2159 116.496 84.3039 117.184 86.9599 118.56C89.6479 119.936 91.7119 121.904 93.1519 124.464C94.6239 126.992 95.3599 129.936 95.3599 133.296C95.3599 136.656 94.6239 139.6 93.1519 142.128C91.7119 144.624 89.6479 146.56 86.9599 147.936C84.3039 149.312 81.2159 150 77.6959 150H65.9839V116.496H77.6959ZM77.4559 144.288C80.9759 144.288 83.6959 143.328 85.6159 141.408C87.5359 139.488 88.4959 136.784 88.4959 133.296C88.4959 129.808 87.5359 127.088 85.6159 125.136C83.6959 123.152 80.9759 122.16 77.4559 122.16H72.7039V144.288H77.4559ZM121.078 116.496V121.92H107.11V130.512H117.814V135.84H107.11V150H100.39V116.496H121.078Z" fill="black"/>
<path d="M430.213 126.864C430.213 128.656 429.781 130.336 428.917 131.904C428.085 133.472 426.757 134.736 424.933 135.696C423.141 136.656 420.869 137.136 418.117 137.136H412.501V150H405.781V116.496H418.117C420.709 116.496 422.917 116.944 424.741 117.84C426.565 118.736 427.925 119.968 428.821 121.536C429.749 123.104 430.213 124.88 430.213 126.864ZM417.829 131.712C419.685 131.712 421.061 131.296 421.957 130.464C422.853 129.6 423.301 128.4 423.301 126.864C423.301 123.6 421.477 121.968 417.829 121.968H412.501V131.712H417.829ZM446.696 116.496C450.216 116.496 453.304 117.184 455.96 118.56C458.648 119.936 460.712 121.904 462.152 124.464C463.624 126.992 464.36 129.936 464.36 133.296C464.36 136.656 463.624 139.6 462.152 142.128C460.712 144.624 458.648 146.56 455.96 147.936C453.304 149.312 450.216 150 446.696 150H434.984V116.496H446.696ZM446.456 144.288C449.976 144.288 452.696 143.328 454.616 141.408C456.536 139.488 457.496 136.784 457.496 133.296C457.496 129.808 456.536 127.088 454.616 125.136C452.696 123.152 449.976 122.16 446.456 122.16H441.704V144.288H446.456ZM490.078 116.496V121.92H476.11V130.512H486.814V135.84H476.11V150H469.39V116.496H490.078Z" fill="black"/>
<path d="M191.885 29.864C191.885 31.656 191.453 33.336 190.589 34.904C189.757 36.472 188.429 37.736 186.605 38.696C184.813 39.656 182.541 40.136 179.789 40.136H174.173V53H167.453V19.496H179.789C182.381 19.496 184.589 19.944 186.413 20.84C188.237 21.736 189.597 22.968 190.493 24.536C191.421 26.104 191.885 27.88 191.885 29.864ZM179.501 34.712C181.357 34.712 182.733 34.296 183.629 33.464C184.525 32.6 184.973 31.4 184.973 29.864C184.973 26.6 183.149 24.968 179.501 24.968H174.173V34.712H179.501ZM213.936 53L206.544 39.944H203.376V53H196.656V19.496H209.232C211.824 19.496 214.032 19.96 215.856 20.888C217.68 21.784 219.04 23.016 219.936 24.584C220.864 26.12 221.328 27.848 221.328 29.768C221.328 31.976 220.688 33.976 219.408 35.768C218.128 37.528 216.224 38.744 213.696 39.416L221.712 53H213.936ZM203.376 34.904H208.992C210.816 34.904 212.176 34.472 213.072 33.608C213.968 32.712 214.416 31.48 214.416 29.912C214.416 28.376 213.968 27.192 213.072 26.36C212.176 25.496 210.816 25.064 208.992 25.064H203.376V34.904ZM242.958 53.336C239.822 53.336 236.942 52.6 234.318 51.128C231.694 49.656 229.614 47.624 228.078 45.032C226.542 42.408 225.774 39.448 225.774 36.152C225.774 32.888 226.542 29.96 228.078 27.368C229.614 24.744 231.694 22.696 234.318 21.224C236.942 19.752 239.822 19.016 242.958 19.016C246.126 19.016 249.006 19.752 251.598 21.224C254.222 22.696 256.286 24.744 257.79 27.368C259.326 29.96 260.094 32.888 260.094 36.152C260.094 39.448 259.326 42.408 257.79 45.032C256.286 47.624 254.222 49.656 251.598 51.128C248.974 52.6 246.094 53.336 242.958 53.336ZM242.958 47.336C244.974 47.336 246.75 46.888 248.286 45.992C249.822 45.064 251.022 43.752 251.886 42.056C252.75 40.36 253.182 38.392 253.182 36.152C253.182 33.912 252.75 31.96 251.886 30.296C251.022 28.6 249.822 27.304 248.286 26.408C246.75 25.512 244.974 25.064 242.958 25.064C240.942 25.064 239.15 25.512 237.582 26.408C236.046 27.304 234.846 28.6 233.982 30.296C233.118 31.96 232.686 33.912 232.686 36.152C232.686 38.392 233.118 40.36 233.982 42.056C234.846 43.752 236.046 45.064 237.582 45.992C239.15 46.888 240.942 47.336 242.958 47.336ZM301.621 19.496V53H294.901V31.208L285.925 53H280.837L271.813 31.208V53H265.093V19.496H272.725L283.381 44.408L294.037 19.496H301.621ZM332.697 29.864C332.697 31.656 332.265 33.336 331.401 34.904C330.569 36.472 329.241 37.736 327.417 38.696C325.625 39.656 323.353 40.136 320.601 40.136H314.985V53H308.265V19.496H320.601C323.193 19.496 325.401 19.944 327.225 20.84C329.049 21.736 330.409 22.968 331.305 24.536C332.233 26.104 332.697 27.88 332.697 29.864ZM320.313 34.712C322.169 34.712 323.545 34.296 324.441 33.464C325.337 32.6 325.785 31.4 325.785 29.864C325.785 26.6 323.961 24.968 320.313 24.968H314.985V34.712H320.313ZM360.268 19.496V24.92H351.34V53H344.62V24.92H335.692V19.496H360.268Z" fill="black"/>
<path d="M262.086 247.416C262.867 248.197 264.133 248.197 264.914 247.416L277.642 234.688C278.423 233.907 278.423 232.64 277.642 231.859C276.861 231.078 275.595 231.078 274.814 231.859L263.5 243.173L252.186 231.859C251.405 231.078 250.139 231.078 249.358 231.859C248.577 232.64 248.577 233.907 249.358 234.688L262.086 247.416ZM261.5 78.9985V246.002H265.5V78.9985H261.5Z" fill="black"/>
<defs>
<clipPath id="clip0_36_211">
<rect width="204.095" height="204.095" fill="white" transform="translate(192 257)"/>
</clipPath>
</defs>
</svg>
