<svg width="1077" height="831" viewBox="0 0 1077 831" fill="none" xmlns="http://www.w3.org/2000/svg">
<path d="M543.763 378.031H489.377V383.785H543.763V378.031Z" fill="#010002"/>
<path d="M692 346.139L657.761 303.255L657.86 303.174H657.685L657.533 302.982L657.271 303.174H609.696L616.072 286.413L557.93 274.51L551.199 255L470.806 276.377L482.019 316.448L434.482 352.113V354.035L421.261 392.104L434.482 383.001V505.033H596.471V504.666L657.737 453.22V378.762L692 346.139ZM683.948 345.62L629.698 397.279L597.329 355.519L653.245 307.167L683.948 345.62ZM642.179 308.924L592.235 352.113H591.044L607.498 308.924H642.179ZM584.569 352.113H504.717L533.919 275.481L607.989 290.651L584.569 352.113ZM547.215 262.041L551.032 273.093L529.982 268.781L498.278 351.988L478.239 280.385L547.215 262.041ZM483.985 323.449L492.004 352.113H446.143L483.985 323.449ZM590.366 499.277H440.574V357.868H590.366V499.277ZM651.645 450.642L596.471 496.959V364.151L628.991 406.116L651.645 384.564V450.642Z" fill="#010002"/>
<path d="M244.167 689.5V748.458C244.167 770.693 244.167 781.81 237.015 788.717C229.863 795.625 218.353 795.625 195.333 795.625H79.3541C62.4979 795.625 48.8333 782.427 48.8333 766.146M244.167 689.5C244.167 711.734 244.167 722.852 237.015 729.759C229.863 736.667 218.353 736.667 195.333 736.667H79.3541C62.4979 736.667 48.8333 749.865 48.8333 766.146M244.167 689.5V630.542C244.167 608.307 244.167 597.19 237.015 590.282C229.863 583.375 218.353 583.375 195.333 583.375H97.6666C74.6463 583.375 63.1362 583.375 55.9848 590.282C48.8333 597.19 48.8333 608.307 48.8333 630.542V766.146" stroke="#33363F" stroke-width="12"/>
<path d="M109.875 609.563H183.125" stroke="#33363F" stroke-width="12" stroke-linecap="round"/>
<path d="M87.8999 631.993H204.648" stroke="#33363F" stroke-width="12" stroke-linecap="round"/>
<path d="M244.167 141.5V200.458C244.167 222.693 244.167 233.81 237.015 240.717C229.863 247.625 218.353 247.625 195.333 247.625H79.3541C62.4979 247.625 48.8333 234.427 48.8333 218.146M244.167 141.5C244.167 163.734 244.167 174.852 237.015 181.759C229.863 188.667 218.353 188.667 195.333 188.667H79.3541C62.4979 188.667 48.8333 201.865 48.8333 218.146M244.167 141.5V82.5417C244.167 60.3071 244.167 49.1898 237.015 42.2824C229.863 35.375 218.353 35.375 195.333 35.375H97.6666C74.6463 35.375 63.1362 35.375 55.9848 42.2824C48.8333 49.1898 48.8333 60.3071 48.8333 82.5417V218.146" stroke="#33363F" stroke-width="12"/>
<path d="M109.875 61.5632H183.125" stroke="#33363F" stroke-width="12" stroke-linecap="round"/>
<path d="M87.8999 83.9933H204.648" stroke="#33363F" stroke-width="12" stroke-linecap="round"/>
<path d="M1028.17 141.5V200.458C1028.17 222.693 1028.17 233.81 1021.01 240.717C1013.86 247.625 1002.35 247.625 979.333 247.625H863.354C846.498 247.625 832.833 234.427 832.833 218.146M1028.17 141.5C1028.17 163.734 1028.17 174.852 1021.01 181.759C1013.86 188.667 1002.35 188.667 979.333 188.667H863.354C846.498 188.667 832.833 201.865 832.833 218.146M1028.17 141.5V82.5417C1028.17 60.3071 1028.17 49.1898 1021.01 42.2824C1013.86 35.375 1002.35 35.375 979.333 35.375H881.667C858.646 35.375 847.136 35.375 839.985 42.2824C832.833 49.1898 832.833 60.3071 832.833 82.5417V218.146" stroke="#33363F" stroke-width="12"/>
<path d="M893.875 61.5632H967.125" stroke="#33363F" stroke-width="12" stroke-linecap="round"/>
<path d="M871.9 83.9933H988.648" stroke="#33363F" stroke-width="12" stroke-linecap="round"/>
<path d="M1028.17 689.5V748.458C1028.17 770.693 1028.17 781.81 1021.01 788.717C1013.86 795.625 1002.35 795.625 979.333 795.625H863.354C846.498 795.625 832.833 782.427 832.833 766.146M1028.17 689.5C1028.17 711.734 1028.17 722.852 1021.01 729.759C1013.86 736.667 1002.35 736.667 979.333 736.667H863.354C846.498 736.667 832.833 749.865 832.833 766.146M1028.17 689.5V630.542C1028.17 608.307 1028.17 597.19 1021.01 590.282C1013.86 583.375 1002.35 583.375 979.333 583.375H881.667C858.646 583.375 847.136 583.375 839.985 590.282C832.833 597.19 832.833 608.307 832.833 630.542V766.146" stroke="#33363F" stroke-width="12"/>
<path d="M893.875 609.563H967.125" stroke="#33363F" stroke-width="12" stroke-linecap="round"/>
<path d="M871.9 631.993H988.648" stroke="#33363F" stroke-width="12" stroke-linecap="round"/>
<path d="M423.981 309C425.638 309.01 426.99 307.676 427 306.019L427.17 279.019C427.18 277.363 425.845 276.011 424.189 276.001C422.532 275.99 421.18 277.325 421.17 278.982L421.019 302.981L397.019 302.83C395.363 302.82 394.011 304.155 394.001 305.811C393.99 307.468 395.325 308.82 396.982 308.83L423.981 309ZM263.865 148.108L421.865 308.108L426.135 303.892L268.135 143.892L263.865 148.108Z" fill="black"/>
<path d="M650.019 295C648.362 295.01 647.01 293.676 647 292.019L646.83 265.019C646.82 263.363 648.155 262.011 649.811 262.001C651.468 261.99 652.82 263.325 652.83 264.982L652.981 288.981L676.981 288.83C678.637 288.82 679.989 290.155 679.999 291.811C680.01 293.468 678.675 294.82 677.018 294.83L650.019 295ZM810.135 134.108L652.135 294.108L647.865 289.892L805.865 129.892L810.135 134.108Z" fill="black"/>
<path d="M650.019 494C648.362 493.99 647.01 495.324 647 496.981L646.83 523.981C646.82 525.637 648.155 526.989 649.811 526.999C651.468 527.01 652.82 525.675 652.83 524.018L652.981 500.019L676.981 500.17C678.637 500.18 679.989 498.845 679.999 497.189C680.01 495.532 678.675 494.18 677.018 494.17L650.019 494ZM810.135 654.892L652.135 494.892L647.865 499.108L805.865 659.108L810.135 654.892Z" fill="black"/>
<path d="M423.981 508C425.638 507.99 426.99 509.324 427 510.981L427.17 537.981C427.18 539.637 425.845 540.989 424.189 540.999C422.532 541.01 421.18 539.675 421.17 538.018L421.019 514.019L397.019 514.17C395.363 514.18 394.011 512.845 394.001 511.189C393.99 509.532 395.325 508.18 396.982 508.17L423.981 508ZM263.865 668.892L421.865 508.892L426.135 513.108L268.135 673.108L263.865 668.892Z" fill="black"/>
<path d="M450.489 426.854C450.489 425.206 450.857 423.734 451.593 422.438C452.345 421.126 453.361 420.11 454.641 419.39C455.937 418.654 457.385 418.286 458.985 418.286C460.857 418.286 462.497 418.766 463.905 419.726C465.313 420.686 466.297 422.014 466.857 423.71H462.993C462.609 422.91 462.065 422.31 461.361 421.91C460.673 421.51 459.873 421.31 458.961 421.31C457.985 421.31 457.113 421.542 456.345 422.006C455.593 422.454 455.001 423.094 454.569 423.926C454.153 424.758 453.945 425.734 453.945 426.854C453.945 427.958 454.153 428.934 454.569 429.782C455.001 430.614 455.593 431.262 456.345 431.726C457.113 432.174 457.985 432.398 458.961 432.398C459.873 432.398 460.673 432.198 461.361 431.798C462.065 431.382 462.609 430.774 462.993 429.974H466.857C466.297 431.686 465.313 433.022 463.905 433.982C462.513 434.926 460.873 435.398 458.985 435.398C457.385 435.398 455.937 435.038 454.641 434.318C453.361 433.582 452.345 432.566 451.593 431.27C450.857 429.974 450.489 428.502 450.489 426.854ZM477.503 435.422C475.935 435.422 474.495 435.054 473.183 434.318C471.871 433.582 470.831 432.566 470.063 431.27C469.295 429.958 468.911 428.478 468.911 426.83C468.911 425.198 469.295 423.734 470.063 422.438C470.831 421.126 471.871 420.102 473.183 419.366C474.495 418.63 475.935 418.262 477.503 418.262C479.087 418.262 480.527 418.63 481.823 419.366C483.135 420.102 484.167 421.126 484.919 422.438C485.687 423.734 486.071 425.198 486.071 426.83C486.071 428.478 485.687 429.958 484.919 431.27C484.167 432.566 483.135 433.582 481.823 434.318C480.511 435.054 479.071 435.422 477.503 435.422ZM477.503 432.422C478.511 432.422 479.399 432.198 480.167 431.75C480.935 431.286 481.535 430.63 481.967 429.782C482.399 428.934 482.615 427.95 482.615 426.83C482.615 425.71 482.399 424.734 481.967 423.902C481.535 423.054 480.935 422.406 480.167 421.958C479.399 421.51 478.511 421.286 477.503 421.286C476.495 421.286 475.599 421.51 474.815 421.958C474.047 422.406 473.447 423.054 473.015 423.902C472.583 424.734 472.367 425.71 472.367 426.83C472.367 427.95 472.583 428.934 473.015 429.782C473.447 430.63 474.047 431.286 474.815 431.75C475.599 432.198 476.495 432.422 477.503 432.422ZM506.835 418.502V435.254H503.475V424.358L498.987 435.254H496.443L491.931 424.358V435.254H488.571V418.502H492.387L497.715 430.958L503.043 418.502H506.835ZM522.373 423.686C522.373 424.582 522.157 425.422 521.725 426.206C521.309 426.99 520.645 427.622 519.733 428.102C518.837 428.582 517.701 428.822 516.325 428.822H513.517V435.254H510.157V418.502H516.325C517.621 418.502 518.725 418.726 519.637 419.174C520.549 419.622 521.229 420.238 521.677 421.022C522.141 421.806 522.373 422.694 522.373 423.686ZM516.181 426.11C517.109 426.11 517.797 425.902 518.245 425.486C518.693 425.054 518.917 424.454 518.917 423.686C518.917 422.054 518.005 421.238 516.181 421.238H513.517V426.11H516.181ZM528.071 418.502V428.87C528.071 430.006 528.367 430.878 528.959 431.486C529.551 432.078 530.383 432.374 531.455 432.374C532.543 432.374 533.383 432.078 533.975 431.486C534.567 430.878 534.863 430.006 534.863 428.87V418.502H538.247V428.846C538.247 430.27 537.935 431.478 537.311 432.47C536.703 433.446 535.879 434.182 534.839 434.678C533.815 435.174 532.671 435.422 531.407 435.422C530.159 435.422 529.023 435.174 527.999 434.678C526.991 434.182 526.191 433.446 525.599 432.47C525.007 431.478 524.711 430.27 524.711 428.846V418.502H528.071ZM552.893 418.502V421.214H548.429V435.254H545.069V421.214H540.605V418.502H552.893ZM558.705 421.214V425.414H564.345V428.078H558.705V432.518H565.065V435.254H555.345V418.478H565.065V421.214H558.705ZM576.758 435.254L573.062 428.726H571.478V435.254H568.118V418.502H574.406C575.702 418.502 576.806 418.734 577.718 419.198C578.63 419.646 579.31 420.262 579.758 421.046C580.222 421.814 580.454 422.678 580.454 423.638C580.454 424.742 580.134 425.742 579.494 426.638C578.854 427.518 577.902 428.126 576.638 428.462L580.646 435.254H576.758ZM571.478 426.206H574.286C575.198 426.206 575.878 425.99 576.326 425.558C576.774 425.11 576.998 424.494 576.998 423.71C576.998 422.942 576.774 422.35 576.326 421.934C575.878 421.502 575.198 421.286 574.286 421.286H571.478V426.206ZM472.511 471.422C471.343 471.422 470.287 471.222 469.343 470.822C468.415 470.422 467.679 469.846 467.135 469.094C466.591 468.342 466.311 467.454 466.295 466.43H469.895C469.943 467.118 470.183 467.662 470.615 468.062C471.063 468.462 471.671 468.662 472.439 468.662C473.223 468.662 473.839 468.478 474.287 468.11C474.735 467.726 474.959 467.23 474.959 466.622C474.959 466.126 474.807 465.718 474.503 465.398C474.199 465.078 473.815 464.83 473.351 464.654C472.903 464.462 472.279 464.254 471.479 464.03C470.391 463.71 469.503 463.398 468.815 463.094C468.143 462.774 467.559 462.302 467.063 461.678C466.583 461.038 466.343 460.19 466.343 459.134C466.343 458.142 466.591 457.278 467.087 456.542C467.583 455.806 468.279 455.246 469.175 454.862C470.071 454.462 471.095 454.262 472.247 454.262C473.975 454.262 475.375 454.686 476.447 455.534C477.535 456.366 478.135 457.534 478.247 459.038H474.551C474.519 458.462 474.271 457.99 473.807 457.622C473.359 457.238 472.759 457.046 472.007 457.046C471.351 457.046 470.823 457.214 470.423 457.55C470.039 457.886 469.847 458.374 469.847 459.014C469.847 459.462 469.991 459.838 470.279 460.142C470.583 460.43 470.951 460.67 471.383 460.862C471.831 461.038 472.455 461.246 473.255 461.486C474.343 461.806 475.231 462.126 475.919 462.446C476.607 462.766 477.199 463.246 477.695 463.886C478.191 464.526 478.439 465.366 478.439 466.406C478.439 467.302 478.207 468.134 477.743 468.902C477.279 469.67 476.599 470.286 475.703 470.75C474.807 471.198 473.743 471.422 472.511 471.422ZM480.536 462.854C480.536 461.206 480.904 459.734 481.64 458.438C482.392 457.126 483.408 456.11 484.688 455.39C485.984 454.654 487.432 454.286 489.032 454.286C490.904 454.286 492.544 454.766 493.952 455.726C495.36 456.686 496.344 458.014 496.904 459.71H493.04C492.656 458.91 492.112 458.31 491.408 457.91C490.72 457.51 489.92 457.31 489.008 457.31C488.032 457.31 487.16 457.542 486.392 458.006C485.64 458.454 485.048 459.094 484.616 459.926C484.2 460.758 483.992 461.734 483.992 462.854C483.992 463.958 484.2 464.934 484.616 465.782C485.048 466.614 485.64 467.262 486.392 467.726C487.16 468.174 488.032 468.398 489.008 468.398C489.92 468.398 490.72 468.198 491.408 467.798C492.112 467.382 492.656 466.774 493.04 465.974H496.904C496.344 467.686 495.36 469.022 493.952 469.982C492.56 470.926 490.92 471.398 489.032 471.398C487.432 471.398 485.984 471.038 484.688 470.318C483.408 469.582 482.392 468.566 481.64 467.27C480.904 465.974 480.536 464.502 480.536 462.854ZM503.134 454.502V471.254H499.774V454.502H503.134ZM509.814 457.214V461.414H515.454V464.078H509.814V468.518H516.174V471.254H506.454V454.478H516.174V457.214H509.814ZM533.555 471.254H530.195L522.587 459.758V471.254H519.227V454.478H522.587L530.195 465.998V454.478H533.555V471.254ZM536.06 462.854C536.06 461.206 536.428 459.734 537.164 458.438C537.916 457.126 538.932 456.11 540.212 455.39C541.508 454.654 542.956 454.286 544.556 454.286C546.428 454.286 548.068 454.766 549.476 455.726C550.884 456.686 551.868 458.014 552.428 459.71H548.564C548.18 458.91 547.636 458.31 546.932 457.91C546.244 457.51 545.444 457.31 544.532 457.31C543.556 457.31 542.684 457.542 541.916 458.006C541.164 458.454 540.572 459.094 540.14 459.926C539.724 460.758 539.516 461.734 539.516 462.854C539.516 463.958 539.724 464.934 540.14 465.782C540.572 466.614 541.164 467.262 541.916 467.726C542.684 468.174 543.556 468.398 544.532 468.398C545.444 468.398 546.244 468.198 546.932 467.798C547.636 467.382 548.18 466.774 548.564 465.974H552.428C551.868 467.686 550.884 469.022 549.476 469.982C548.084 470.926 546.444 471.398 544.556 471.398C542.956 471.398 541.508 471.038 540.212 470.318C538.932 469.582 537.916 468.566 537.164 467.27C536.428 465.974 536.06 464.502 536.06 462.854ZM558.658 457.214V461.414H564.298V464.078H558.658V468.518H565.018V471.254H555.298V454.478H565.018V457.214H558.658Z" fill="#633A92"/>
<path d="M79.2769 664.6C79.2769 662.952 79.6449 661.48 80.3809 660.184C81.1329 658.872 82.1489 657.856 83.4289 657.136C84.7249 656.4 86.1729 656.032 87.7729 656.032C89.6449 656.032 91.2849 656.512 92.6929 657.472C94.1009 658.432 95.0849 659.76 95.6449 661.456H91.7809C91.3969 660.656 90.8529 660.056 90.1489 659.656C89.4609 659.256 88.6609 659.056 87.7489 659.056C86.7729 659.056 85.9009 659.288 85.1329 659.752C84.3809 660.2 83.7889 660.84 83.3569 661.672C82.9409 662.504 82.7329 663.48 82.7329 664.6C82.7329 665.704 82.9409 666.68 83.3569 667.528C83.7889 668.36 84.3809 669.008 85.1329 669.472C85.9009 669.92 86.7729 670.144 87.7489 670.144C88.6609 670.144 89.4609 669.944 90.1489 669.544C90.8529 669.128 91.3969 668.52 91.7809 667.72H95.6449C95.0849 669.432 94.1009 670.768 92.6929 671.728C91.3009 672.672 89.6609 673.144 87.7729 673.144C86.1729 673.144 84.7249 672.784 83.4289 672.064C82.1489 671.328 81.1329 670.312 80.3809 669.016C79.6449 667.72 79.2769 666.248 79.2769 664.6ZM106.291 673.168C104.723 673.168 103.283 672.8 101.971 672.064C100.659 671.328 99.6187 670.312 98.8507 669.016C98.0827 667.704 97.6987 666.224 97.6987 664.576C97.6987 662.944 98.0827 661.48 98.8507 660.184C99.6187 658.872 100.659 657.848 101.971 657.112C103.283 656.376 104.723 656.008 106.291 656.008C107.875 656.008 109.315 656.376 110.611 657.112C111.923 657.848 112.955 658.872 113.707 660.184C114.475 661.48 114.859 662.944 114.859 664.576C114.859 666.224 114.475 667.704 113.707 669.016C112.955 670.312 111.923 671.328 110.611 672.064C109.299 672.8 107.859 673.168 106.291 673.168ZM106.291 670.168C107.299 670.168 108.187 669.944 108.955 669.496C109.723 669.032 110.323 668.376 110.755 667.528C111.187 666.68 111.403 665.696 111.403 664.576C111.403 663.456 111.187 662.48 110.755 661.648C110.323 660.8 109.723 660.152 108.955 659.704C108.187 659.256 107.299 659.032 106.291 659.032C105.283 659.032 104.387 659.256 103.603 659.704C102.835 660.152 102.235 660.8 101.803 661.648C101.371 662.48 101.155 663.456 101.155 664.576C101.155 665.696 101.371 666.68 101.803 667.528C102.235 668.376 102.835 669.032 103.603 669.496C104.387 669.944 105.283 670.168 106.291 670.168ZM135.623 656.248V673H132.263V662.104L127.774 673H125.23L120.718 662.104V673H117.358V656.248H121.174L126.502 668.704L131.831 656.248H135.623ZM151.16 661.432C151.16 662.328 150.944 663.168 150.512 663.952C150.096 664.736 149.432 665.368 148.52 665.848C147.624 666.328 146.488 666.568 145.112 666.568H142.304V673H138.944V656.248H145.112C146.408 656.248 147.512 656.472 148.424 656.92C149.336 657.368 150.016 657.984 150.464 658.768C150.928 659.552 151.16 660.44 151.16 661.432ZM144.968 663.856C145.896 663.856 146.584 663.648 147.032 663.232C147.48 662.8 147.704 662.2 147.704 661.432C147.704 659.8 146.792 658.984 144.968 658.984H142.304V663.856H144.968ZM156.858 656.248V666.616C156.858 667.752 157.154 668.624 157.746 669.232C158.338 669.824 159.17 670.12 160.242 670.12C161.33 670.12 162.17 669.824 162.762 669.232C163.354 668.624 163.65 667.752 163.65 666.616V656.248H167.034V666.592C167.034 668.016 166.722 669.224 166.098 670.216C165.49 671.192 164.666 671.928 163.626 672.424C162.602 672.92 161.458 673.168 160.194 673.168C158.946 673.168 157.81 672.92 156.786 672.424C155.778 671.928 154.978 671.192 154.386 670.216C153.794 669.224 153.498 668.016 153.498 666.592V656.248H156.858ZM181.68 656.248V658.96H177.216V673H173.856V658.96H169.392V656.248H181.68ZM187.492 658.96V663.16H193.132V665.824H187.492V670.264H193.852V673H184.132V656.224H193.852V658.96H187.492ZM205.545 673L201.849 666.472H200.265V673H196.905V656.248H203.193C204.489 656.248 205.593 656.48 206.505 656.944C207.417 657.392 208.097 658.008 208.545 658.792C209.009 659.56 209.241 660.424 209.241 661.384C209.241 662.488 208.921 663.488 208.281 664.384C207.641 665.264 206.689 665.872 205.425 666.208L209.433 673H205.545ZM200.265 663.952H203.073C203.985 663.952 204.665 663.736 205.113 663.304C205.561 662.856 205.785 662.24 205.785 661.456C205.785 660.688 205.561 660.096 205.113 659.68C204.665 659.248 203.985 659.032 203.073 659.032H200.265V663.952ZM96.5654 709H93.2054L85.5974 697.504V709H82.2374V692.224H85.5974L93.2054 703.744V692.224H96.5654V709ZM103.246 694.96V699.16H108.886V701.824H103.246V706.264H109.606V709H99.8858V692.224H109.606V694.96H103.246ZM124.059 692.248V694.96H119.595V709H116.235V694.96H111.771V692.248H124.059ZM148.903 692.248L144.223 709H140.263L137.119 697.072L133.831 709L129.895 709.024L125.383 692.248H128.983L131.935 705.256L135.343 692.248H139.087L142.303 705.184L145.279 692.248H148.903ZM158.873 709.168C157.305 709.168 155.865 708.8 154.553 708.064C153.241 707.328 152.201 706.312 151.433 705.016C150.665 703.704 150.281 702.224 150.281 700.576C150.281 698.944 150.665 697.48 151.433 696.184C152.201 694.872 153.241 693.848 154.553 693.112C155.865 692.376 157.305 692.008 158.873 692.008C160.457 692.008 161.897 692.376 163.193 693.112C164.505 693.848 165.537 694.872 166.289 696.184C167.057 697.48 167.441 698.944 167.441 700.576C167.441 702.224 167.057 703.704 166.289 705.016C165.537 706.312 164.505 707.328 163.193 708.064C161.881 708.8 160.441 709.168 158.873 709.168ZM158.873 706.168C159.881 706.168 160.769 705.944 161.537 705.496C162.305 705.032 162.905 704.376 163.337 703.528C163.769 702.68 163.985 701.696 163.985 700.576C163.985 699.456 163.769 698.48 163.337 697.648C162.905 696.8 162.305 696.152 161.537 695.704C160.769 695.256 159.881 695.032 158.873 695.032C157.865 695.032 156.969 695.256 156.185 695.704C155.417 696.152 154.817 696.8 154.385 697.648C153.953 698.48 153.737 699.456 153.737 700.576C153.737 701.696 153.953 702.68 154.385 703.528C154.817 704.376 155.417 705.032 156.185 705.496C156.969 705.944 157.865 706.168 158.873 706.168ZM178.581 709L174.885 702.472H173.301V709H169.941V692.248H176.229C177.525 692.248 178.629 692.48 179.541 692.944C180.453 693.392 181.133 694.008 181.581 694.792C182.045 695.56 182.277 696.424 182.277 697.384C182.277 698.488 181.957 699.488 181.317 700.384C180.677 701.264 179.725 701.872 178.461 702.208L182.469 709H178.581ZM173.301 699.952H176.109C177.021 699.952 177.701 699.736 178.149 699.304C178.597 698.856 178.821 698.24 178.821 697.456C178.821 696.688 178.597 696.096 178.149 695.68C177.701 695.248 177.021 695.032 176.109 695.032H173.301V699.952ZM194.772 709L188.676 701.536V709H185.316V692.248H188.676V699.76L194.772 692.248H198.828L191.916 700.552L199.02 709H194.772ZM207.014 709.168C205.846 709.168 204.79 708.968 203.846 708.568C202.918 708.168 202.182 707.592 201.638 706.84C201.094 706.088 200.814 705.2 200.798 704.176H204.398C204.446 704.864 204.686 705.408 205.118 705.808C205.566 706.208 206.174 706.408 206.942 706.408C207.726 706.408 208.342 706.224 208.79 705.856C209.238 705.472 209.462 704.976 209.462 704.368C209.462 703.872 209.31 703.464 209.006 703.144C208.702 702.824 208.318 702.576 207.854 702.4C207.406 702.208 206.782 702 205.982 701.776C204.894 701.456 204.006 701.144 203.318 700.84C202.646 700.52 202.062 700.048 201.566 699.424C201.086 698.784 200.846 697.936 200.846 696.88C200.846 695.888 201.094 695.024 201.59 694.288C202.086 693.552 202.782 692.992 203.678 692.608C204.574 692.208 205.598 692.008 206.75 692.008C208.478 692.008 209.878 692.432 210.95 693.28C212.038 694.112 212.638 695.28 212.75 696.784H209.054C209.022 696.208 208.774 695.736 208.31 695.368C207.862 694.984 207.262 694.792 206.51 694.792C205.854 694.792 205.326 694.96 204.926 695.296C204.542 695.632 204.35 696.12 204.35 696.76C204.35 697.208 204.494 697.584 204.782 697.888C205.086 698.176 205.454 698.416 205.886 698.608C206.334 698.784 206.958 698.992 207.758 699.232C208.846 699.552 209.734 699.872 210.422 700.192C211.11 700.512 211.702 700.992 212.198 701.632C212.694 702.272 212.942 703.112 212.942 704.152C212.942 705.048 212.71 705.88 212.246 706.648C211.782 707.416 211.102 708.032 210.206 708.496C209.31 708.944 208.246 709.168 207.014 709.168Z" fill="#633A92"/>
<path d="M107.471 134.168C106.303 134.168 105.247 133.968 104.303 133.568C103.375 133.168 102.639 132.592 102.095 131.84C101.551 131.088 101.271 130.2 101.255 129.176H104.855C104.903 129.864 105.143 130.408 105.575 130.808C106.023 131.208 106.631 131.408 107.399 131.408C108.183 131.408 108.799 131.224 109.247 130.856C109.695 130.472 109.919 129.976 109.919 129.368C109.919 128.872 109.767 128.464 109.463 128.144C109.159 127.824 108.775 127.576 108.311 127.4C107.863 127.208 107.239 127 106.439 126.776C105.351 126.456 104.463 126.144 103.775 125.84C103.103 125.52 102.519 125.048 102.023 124.424C101.543 123.784 101.303 122.936 101.303 121.88C101.303 120.888 101.551 120.024 102.047 119.288C102.543 118.552 103.239 117.992 104.135 117.608C105.031 117.208 106.055 117.008 107.207 117.008C108.935 117.008 110.335 117.432 111.407 118.28C112.495 119.112 113.095 120.28 113.207 121.784H109.511C109.479 121.208 109.231 120.736 108.767 120.368C108.319 119.984 107.719 119.792 106.967 119.792C106.311 119.792 105.783 119.96 105.383 120.296C104.999 120.632 104.807 121.12 104.807 121.76C104.807 122.208 104.951 122.584 105.239 122.888C105.543 123.176 105.911 123.416 106.343 123.608C106.791 123.784 107.415 123.992 108.215 124.232C109.303 124.552 110.191 124.872 110.879 125.192C111.567 125.512 112.159 125.992 112.655 126.632C113.151 127.272 113.399 128.112 113.399 129.152C113.399 130.048 113.167 130.88 112.703 131.648C112.239 132.416 111.559 133.032 110.663 133.496C109.767 133.944 108.703 134.168 107.471 134.168ZM129.632 117.248L123.968 128.168V134H120.608V128.168L114.92 117.248H118.712L122.312 124.904L125.888 117.248H129.632ZM137.353 134.168C136.185 134.168 135.129 133.968 134.185 133.568C133.257 133.168 132.521 132.592 131.977 131.84C131.433 131.088 131.153 130.2 131.137 129.176H134.737C134.785 129.864 135.025 130.408 135.457 130.808C135.905 131.208 136.513 131.408 137.281 131.408C138.065 131.408 138.681 131.224 139.129 130.856C139.577 130.472 139.801 129.976 139.801 129.368C139.801 128.872 139.649 128.464 139.345 128.144C139.041 127.824 138.657 127.576 138.193 127.4C137.745 127.208 137.121 127 136.321 126.776C135.233 126.456 134.345 126.144 133.657 125.84C132.985 125.52 132.401 125.048 131.905 124.424C131.425 123.784 131.185 122.936 131.185 121.88C131.185 120.888 131.433 120.024 131.929 119.288C132.425 118.552 133.121 117.992 134.017 117.608C134.913 117.208 135.937 117.008 137.089 117.008C138.817 117.008 140.217 117.432 141.289 118.28C142.377 119.112 142.977 120.28 143.089 121.784H139.393C139.361 121.208 139.113 120.736 138.649 120.368C138.201 119.984 137.601 119.792 136.849 119.792C136.193 119.792 135.665 119.96 135.265 120.296C134.881 120.632 134.689 121.12 134.689 121.76C134.689 122.208 134.833 122.584 135.121 122.888C135.425 123.176 135.793 123.416 136.225 123.608C136.673 123.784 137.297 123.992 138.097 124.232C139.185 124.552 140.073 124.872 140.761 125.192C141.449 125.512 142.041 125.992 142.537 126.632C143.033 127.272 143.281 128.112 143.281 129.152C143.281 130.048 143.049 130.88 142.585 131.648C142.121 132.416 141.441 133.032 140.545 133.496C139.649 133.944 138.585 134.168 137.353 134.168ZM157.594 117.248V119.96H153.13V134H149.77V119.96H145.306V117.248H157.594ZM163.406 119.96V124.16H169.046V126.824H163.406V131.264H169.766V134H160.046V117.224H169.766V119.96H163.406ZM191.083 117.248V134H187.723V123.104L183.235 134H180.691L176.179 123.104V134H172.819V117.248H176.635L181.963 129.704L187.291 117.248H191.083ZM102.914 153.248C104.674 153.248 106.218 153.592 107.546 154.28C108.89 154.968 109.922 155.952 110.642 157.232C111.378 158.496 111.746 159.968 111.746 161.648C111.746 163.328 111.378 164.8 110.642 166.064C109.922 167.312 108.89 168.28 107.546 168.968C106.218 169.656 104.674 170 102.914 170H97.0577V153.248H102.914ZM102.794 167.144C104.554 167.144 105.914 166.664 106.874 165.704C107.834 164.744 108.314 163.392 108.314 161.648C108.314 159.904 107.834 158.544 106.874 157.568C105.914 156.576 104.554 156.08 102.794 156.08H100.418V167.144H102.794ZM117.621 155.96V160.16H123.261V162.824H117.621V167.264H123.981V170H114.261V153.224H123.981V155.96H117.621ZM132.818 170.168C131.65 170.168 130.594 169.968 129.65 169.568C128.722 169.168 127.986 168.592 127.442 167.84C126.898 167.088 126.618 166.2 126.602 165.176H130.202C130.25 165.864 130.49 166.408 130.922 166.808C131.37 167.208 131.978 167.408 132.746 167.408C133.53 167.408 134.146 167.224 134.594 166.856C135.042 166.472 135.266 165.976 135.266 165.368C135.266 164.872 135.114 164.464 134.81 164.144C134.506 163.824 134.122 163.576 133.658 163.4C133.21 163.208 132.586 163 131.786 162.776C130.698 162.456 129.81 162.144 129.122 161.84C128.45 161.52 127.866 161.048 127.37 160.424C126.89 159.784 126.65 158.936 126.65 157.88C126.65 156.888 126.898 156.024 127.394 155.288C127.89 154.552 128.586 153.992 129.482 153.608C130.378 153.208 131.402 153.008 132.554 153.008C134.282 153.008 135.682 153.432 136.754 154.28C137.842 155.112 138.442 156.28 138.554 157.784H134.858C134.826 157.208 134.578 156.736 134.114 156.368C133.666 155.984 133.066 155.792 132.314 155.792C131.658 155.792 131.13 155.96 130.73 156.296C130.346 156.632 130.154 157.12 130.154 157.76C130.154 158.208 130.298 158.584 130.586 158.888C130.89 159.176 131.258 159.416 131.69 159.608C132.138 159.784 132.762 159.992 133.562 160.232C134.65 160.552 135.538 160.872 136.226 161.192C136.914 161.512 137.506 161.992 138.002 162.632C138.498 163.272 138.746 164.112 138.746 165.152C138.746 166.048 138.514 166.88 138.05 167.648C137.586 168.416 136.906 169.032 136.01 169.496C135.114 169.944 134.05 170.168 132.818 170.168ZM145.019 153.248V170H141.659V153.248H145.019ZM160.003 158.288C159.619 157.584 159.091 157.048 158.419 156.68C157.747 156.312 156.963 156.128 156.067 156.128C155.075 156.128 154.195 156.352 153.427 156.8C152.659 157.248 152.059 157.888 151.627 158.72C151.195 159.552 150.979 160.512 150.979 161.6C150.979 162.72 151.195 163.696 151.627 164.528C152.075 165.36 152.691 166 153.475 166.448C154.259 166.896 155.171 167.12 156.211 167.12C157.491 167.12 158.539 166.784 159.355 166.112C160.171 165.424 160.707 164.472 160.963 163.256H155.203V160.688H164.275V163.616C164.051 164.784 163.571 165.864 162.835 166.856C162.099 167.848 161.147 168.648 159.979 169.256C158.827 169.848 157.531 170.144 156.091 170.144C154.475 170.144 153.011 169.784 151.699 169.064C150.403 168.328 149.379 167.312 148.627 166.016C147.891 164.72 147.523 163.248 147.523 161.6C147.523 159.952 147.891 158.48 148.627 157.184C149.379 155.872 150.403 154.856 151.699 154.136C153.011 153.4 154.467 153.032 156.067 153.032C157.955 153.032 159.595 153.496 160.987 154.424C162.379 155.336 163.339 156.624 163.867 158.288H160.003ZM181.089 170H177.729L170.121 158.504V170H166.761V153.224H170.121L177.729 164.744V153.224H181.089V170ZM190.193 170.168C189.025 170.168 187.969 169.968 187.025 169.568C186.097 169.168 185.361 168.592 184.817 167.84C184.273 167.088 183.993 166.2 183.977 165.176H187.577C187.625 165.864 187.865 166.408 188.297 166.808C188.745 167.208 189.353 167.408 190.121 167.408C190.905 167.408 191.521 167.224 191.969 166.856C192.417 166.472 192.641 165.976 192.641 165.368C192.641 164.872 192.489 164.464 192.185 164.144C191.881 163.824 191.497 163.576 191.033 163.4C190.585 163.208 189.961 163 189.161 162.776C188.073 162.456 187.185 162.144 186.497 161.84C185.825 161.52 185.241 161.048 184.745 160.424C184.265 159.784 184.025 158.936 184.025 157.88C184.025 156.888 184.273 156.024 184.769 155.288C185.265 154.552 185.961 153.992 186.857 153.608C187.753 153.208 188.777 153.008 189.929 153.008C191.657 153.008 193.057 153.432 194.129 154.28C195.217 155.112 195.817 156.28 195.929 157.784H192.233C192.201 157.208 191.953 156.736 191.489 156.368C191.041 155.984 190.441 155.792 189.689 155.792C189.033 155.792 188.505 155.96 188.105 156.296C187.721 156.632 187.529 157.12 187.529 157.76C187.529 158.208 187.673 158.584 187.961 158.888C188.265 159.176 188.633 159.416 189.065 159.608C189.513 159.784 190.137 159.992 190.937 160.232C192.025 160.552 192.913 160.872 193.601 161.192C194.289 161.512 194.881 161.992 195.377 162.632C195.873 163.272 196.121 164.112 196.121 165.152C196.121 166.048 195.889 166.88 195.425 167.648C194.961 168.416 194.281 169.032 193.385 169.496C192.489 169.944 191.425 170.168 190.193 170.168Z" fill="#633A92"/>
<path d="M896.358 661.288C895.974 660.584 895.446 660.048 894.774 659.68C894.102 659.312 893.318 659.128 892.422 659.128C891.43 659.128 890.55 659.352 889.782 659.8C889.014 660.248 888.414 660.888 887.982 661.72C887.55 662.552 887.334 663.512 887.334 664.6C887.334 665.72 887.55 666.696 887.982 667.528C888.43 668.36 889.046 669 889.83 669.448C890.614 669.896 891.526 670.12 892.566 670.12C893.846 670.12 894.894 669.784 895.71 669.112C896.526 668.424 897.062 667.472 897.318 666.256H891.558V663.688H900.63V666.616C900.406 667.784 899.926 668.864 899.19 669.856C898.454 670.848 897.502 671.648 896.334 672.256C895.182 672.848 893.886 673.144 892.446 673.144C890.83 673.144 889.366 672.784 888.054 672.064C886.758 671.328 885.734 670.312 884.982 669.016C884.246 667.72 883.878 666.248 883.878 664.6C883.878 662.952 884.246 661.48 884.982 660.184C885.734 658.872 886.758 657.856 888.054 657.136C889.366 656.4 890.822 656.032 892.422 656.032C894.31 656.032 895.95 656.496 897.342 657.424C898.734 658.336 899.694 659.624 900.222 661.288H896.358ZM906.476 656.248V673H903.116V656.248H906.476ZM921.196 656.248V658.96H916.732V673H913.372V658.96H908.908V656.248H921.196ZM939.638 669.808H932.966L931.862 673H928.334L934.358 656.224H938.27L944.294 673H940.742L939.638 669.808ZM938.726 667.12L936.302 660.112L933.878 667.12H938.726ZM960.874 673H957.514L949.906 661.504V673H946.546V656.224H949.906L957.514 667.744V656.224H960.874V673ZM970.05 656.248C971.81 656.248 973.354 656.592 974.682 657.28C976.026 657.968 977.058 658.952 977.778 660.232C978.514 661.496 978.882 662.968 978.882 664.648C978.882 666.328 978.514 667.8 977.778 669.064C977.058 670.312 976.026 671.28 974.682 671.968C973.354 672.656 971.81 673 970.05 673H964.194V656.248H970.05ZM969.93 670.144C971.69 670.144 973.05 669.664 974.01 668.704C974.97 667.744 975.45 666.392 975.45 664.648C975.45 662.904 974.97 661.544 974.01 660.568C973.05 659.576 971.69 659.08 969.93 659.08H967.554V670.144H969.93ZM900.554 697.288C900.17 696.584 899.642 696.048 898.97 695.68C898.298 695.312 897.514 695.128 896.618 695.128C895.626 695.128 894.746 695.352 893.978 695.8C893.21 696.248 892.61 696.888 892.178 697.72C891.746 698.552 891.53 699.512 891.53 700.6C891.53 701.72 891.746 702.696 892.178 703.528C892.626 704.36 893.242 705 894.026 705.448C894.81 705.896 895.722 706.12 896.762 706.12C898.042 706.12 899.09 705.784 899.906 705.112C900.722 704.424 901.258 703.472 901.514 702.256H895.754V699.688H904.826V702.616C904.602 703.784 904.122 704.864 903.386 705.856C902.65 706.848 901.698 707.648 900.53 708.256C899.378 708.848 898.082 709.144 896.642 709.144C895.026 709.144 893.562 708.784 892.25 708.064C890.954 707.328 889.93 706.312 889.178 705.016C888.442 703.72 888.074 702.248 888.074 700.6C888.074 698.952 888.442 697.48 889.178 696.184C889.93 694.872 890.954 693.856 892.25 693.136C893.562 692.4 895.018 692.032 896.618 692.032C898.506 692.032 900.146 692.496 901.538 693.424C902.93 694.336 903.89 695.624 904.418 697.288H900.554ZM910.672 692.248V709H907.312V692.248H910.672ZM925.391 692.248V694.96H920.927V709H917.567V694.96H913.103V692.248H925.391ZM941.739 692.248V709H938.379V701.872H931.203V709H927.843V692.248H931.203V699.136H938.379V692.248H941.739ZM948.358 692.248V702.616C948.358 703.752 948.654 704.624 949.246 705.232C949.838 705.824 950.67 706.12 951.742 706.12C952.83 706.12 953.67 705.824 954.262 705.232C954.854 704.624 955.15 703.752 955.15 702.616V692.248H958.534V702.592C958.534 704.016 958.222 705.224 957.598 706.216C956.99 707.192 956.166 707.928 955.126 708.424C954.102 708.92 952.958 709.168 951.694 709.168C950.446 709.168 949.31 708.92 948.286 708.424C947.278 707.928 946.478 707.192 945.886 706.216C945.294 705.224 944.998 704.016 944.998 702.592V692.248H948.358ZM971.284 700.408C972.228 700.584 973.004 701.056 973.612 701.824C974.22 702.592 974.524 703.472 974.524 704.464C974.524 705.36 974.3 706.152 973.852 706.84C973.42 707.512 972.788 708.04 971.956 708.424C971.124 708.808 970.14 709 969.004 709H961.78V692.248H968.692C969.828 692.248 970.804 692.432 971.62 692.8C972.452 693.168 973.076 693.68 973.492 694.336C973.924 694.992 974.14 695.736 974.14 696.568C974.14 697.544 973.876 698.36 973.348 699.016C972.836 699.672 972.148 700.136 971.284 700.408ZM965.14 699.16H968.212C969.012 699.16 969.628 698.984 970.06 698.632C970.492 698.264 970.708 697.744 970.708 697.072C970.708 696.4 970.492 695.88 970.06 695.512C969.628 695.144 969.012 694.96 968.212 694.96H965.14V699.16ZM968.524 706.264C969.34 706.264 969.972 706.072 970.42 705.688C970.884 705.304 971.116 704.76 971.116 704.056C971.116 703.336 970.876 702.776 970.396 702.376C969.916 701.96 969.268 701.752 968.452 701.752H965.14V706.264H968.524Z" fill="#633A92"/>
<path d="M865.582 124.04V138H862.782V128.92L859.042 138H856.922L853.162 128.92V138H850.362V124.04H853.542L857.982 134.42L862.422 124.04H865.582ZM871.151 124.04V138H868.351V124.04H871.151ZM873.237 131C873.237 129.627 873.544 128.4 874.157 127.32C874.784 126.227 875.63 125.38 876.697 124.78C877.777 124.167 878.984 123.86 880.317 123.86C881.877 123.86 883.244 124.26 884.417 125.06C885.59 125.86 886.41 126.967 886.877 128.38H883.657C883.337 127.713 882.884 127.213 882.297 126.88C881.724 126.547 881.057 126.38 880.297 126.38C879.484 126.38 878.757 126.573 878.117 126.96C877.49 127.333 876.997 127.867 876.637 128.56C876.29 129.253 876.117 130.067 876.117 131C876.117 131.92 876.29 132.733 876.637 133.44C876.997 134.133 877.49 134.673 878.117 135.06C878.757 135.433 879.484 135.62 880.297 135.62C881.057 135.62 881.724 135.453 882.297 135.12C882.884 134.773 883.337 134.267 883.657 133.6H886.877C886.41 135.027 885.59 136.14 884.417 136.94C883.257 137.727 881.89 138.12 880.317 138.12C878.984 138.12 877.777 137.82 876.697 137.22C875.63 136.607 874.784 135.76 874.157 134.68C873.544 133.6 873.237 132.373 873.237 131ZM896.469 138L893.389 132.56H892.069V138H889.269V124.04H894.509C895.589 124.04 896.509 124.233 897.269 124.62C898.029 124.993 898.595 125.507 898.969 126.16C899.355 126.8 899.549 127.52 899.549 128.32C899.549 129.24 899.282 130.073 898.749 130.82C898.215 131.553 897.422 132.06 896.369 132.34L899.709 138H896.469ZM892.069 130.46H894.409C895.169 130.46 895.735 130.28 896.109 129.92C896.482 129.547 896.669 129.033 896.669 128.38C896.669 127.74 896.482 127.247 896.109 126.9C895.735 126.54 895.169 126.36 894.409 126.36H892.069V130.46ZM908.561 138.14C907.255 138.14 906.055 137.833 904.961 137.22C903.868 136.607 903.001 135.76 902.361 134.68C901.721 133.587 901.401 132.353 901.401 130.98C901.401 129.62 901.721 128.4 902.361 127.32C903.001 126.227 903.868 125.373 904.961 124.76C906.055 124.147 907.255 123.84 908.561 123.84C909.881 123.84 911.081 124.147 912.161 124.76C913.255 125.373 914.115 126.227 914.741 127.32C915.381 128.4 915.701 129.62 915.701 130.98C915.701 132.353 915.381 133.587 914.741 134.68C914.115 135.76 913.255 136.607 912.161 137.22C911.068 137.833 909.868 138.14 908.561 138.14ZM908.561 135.64C909.401 135.64 910.141 135.453 910.781 135.08C911.421 134.693 911.921 134.147 912.281 133.44C912.641 132.733 912.821 131.913 912.821 130.98C912.821 130.047 912.641 129.233 912.281 128.54C911.921 127.833 911.421 127.293 910.781 126.92C910.141 126.547 909.401 126.36 908.561 126.36C907.721 126.36 906.975 126.547 906.321 126.92C905.681 127.293 905.181 127.833 904.821 128.54C904.461 129.233 904.281 130.047 904.281 130.98C904.281 131.913 904.461 132.733 904.821 133.44C905.181 134.147 905.681 134.693 906.321 135.08C906.975 135.453 907.721 135.64 908.561 135.64ZM922.604 138.14C921.631 138.14 920.751 137.973 919.964 137.64C919.191 137.307 918.578 136.827 918.124 136.2C917.671 135.573 917.438 134.833 917.424 133.98H920.424C920.464 134.553 920.664 135.007 921.024 135.34C921.398 135.673 921.904 135.84 922.544 135.84C923.198 135.84 923.711 135.687 924.084 135.38C924.458 135.06 924.644 134.647 924.644 134.14C924.644 133.727 924.518 133.387 924.264 133.12C924.011 132.853 923.691 132.647 923.304 132.5C922.931 132.34 922.411 132.167 921.744 131.98C920.838 131.713 920.098 131.453 919.524 131.2C918.964 130.933 918.478 130.54 918.064 130.02C917.664 129.487 917.464 128.78 917.464 127.9C917.464 127.073 917.671 126.353 918.084 125.74C918.498 125.127 919.078 124.66 919.824 124.34C920.571 124.007 921.424 123.84 922.384 123.84C923.824 123.84 924.991 124.193 925.884 124.9C926.791 125.593 927.291 126.567 927.384 127.82H924.304C924.278 127.34 924.071 126.947 923.684 126.64C923.311 126.32 922.811 126.16 922.184 126.16C921.638 126.16 921.198 126.3 920.864 126.58C920.544 126.86 920.384 127.267 920.384 127.8C920.384 128.173 920.504 128.487 920.744 128.74C920.998 128.98 921.304 129.18 921.664 129.34C922.038 129.487 922.558 129.66 923.224 129.86C924.131 130.127 924.871 130.393 925.444 130.66C926.018 130.927 926.511 131.327 926.924 131.86C927.338 132.393 927.544 133.093 927.544 133.96C927.544 134.707 927.351 135.4 926.964 136.04C926.578 136.68 926.011 137.193 925.264 137.58C924.518 137.953 923.631 138.14 922.604 138.14ZM932.772 126.3V129.8H937.472V132.02H932.772V135.72H938.072V138H929.972V124.02H938.072V126.3H932.772ZM947.816 138L944.736 132.56H943.416V138H940.616V124.04H945.856C946.936 124.04 947.856 124.233 948.616 124.62C949.376 124.993 949.943 125.507 950.316 126.16C950.703 126.8 950.896 127.52 950.896 128.32C950.896 129.24 950.63 130.073 950.096 130.82C949.563 131.553 948.77 132.06 947.716 132.34L951.056 138H947.816ZM943.416 130.46H945.756C946.516 130.46 947.083 130.28 947.456 129.92C947.83 129.547 948.016 129.033 948.016 128.38C948.016 127.74 947.83 127.247 947.456 126.9C947.083 126.54 946.516 126.36 945.756 126.36H943.416V130.46ZM965.969 124.04L960.849 138H957.449L952.329 124.04H955.329L959.169 135.14L962.989 124.04H965.969ZM970.448 124.04V138H967.648V124.04H970.448ZM972.534 131C972.534 129.627 972.841 128.4 973.454 127.32C974.081 126.227 974.927 125.38 975.994 124.78C977.074 124.167 978.281 123.86 979.614 123.86C981.174 123.86 982.541 124.26 983.714 125.06C984.887 125.86 985.707 126.967 986.174 128.38H982.954C982.634 127.713 982.181 127.213 981.594 126.88C981.021 126.547 980.354 126.38 979.594 126.38C978.781 126.38 978.054 126.573 977.414 126.96C976.787 127.333 976.294 127.867 975.934 128.56C975.587 129.253 975.414 130.067 975.414 131C975.414 131.92 975.587 132.733 975.934 133.44C976.294 134.133 976.787 134.673 977.414 135.06C978.054 135.433 978.781 135.62 979.594 135.62C980.354 135.62 981.021 135.453 981.594 135.12C982.181 134.773 982.634 134.267 982.954 133.6H986.174C985.707 135.027 984.887 136.14 983.714 136.94C982.554 137.727 981.187 138.12 979.614 138.12C978.281 138.12 977.074 137.82 975.994 137.22C974.927 136.607 974.081 135.76 973.454 134.68C972.841 133.6 972.534 132.373 972.534 131ZM991.366 126.3V129.8H996.066V132.02H991.366V135.72H996.666V138H988.566V124.02H996.666V126.3H991.366ZM1004.03 138.14C1003.06 138.14 1002.18 137.973 1001.39 137.64C1000.62 137.307 1000 136.827 999.55 136.2C999.097 135.573 998.863 134.833 998.85 133.98H1001.85C1001.89 134.553 1002.09 135.007 1002.45 135.34C1002.82 135.673 1003.33 135.84 1003.97 135.84C1004.62 135.84 1005.14 135.687 1005.51 135.38C1005.88 135.06 1006.07 134.647 1006.07 134.14C1006.07 133.727 1005.94 133.387 1005.69 133.12C1005.44 132.853 1005.12 132.647 1004.73 132.5C1004.36 132.34 1003.84 132.167 1003.17 131.98C1002.26 131.713 1001.52 131.453 1000.95 131.2C1000.39 130.933 999.903 130.54 999.49 130.02C999.09 129.487 998.89 128.78 998.89 127.9C998.89 127.073 999.097 126.353 999.51 125.74C999.923 125.127 1000.5 124.66 1001.25 124.34C1002 124.007 1002.85 123.84 1003.81 123.84C1005.25 123.84 1006.42 124.193 1007.31 124.9C1008.22 125.593 1008.72 126.567 1008.81 127.82H1005.73C1005.7 127.34 1005.5 126.947 1005.11 126.64C1004.74 126.32 1004.24 126.16 1003.61 126.16C1003.06 126.16 1002.62 126.3 1002.29 126.58C1001.97 126.86 1001.81 127.267 1001.81 127.8C1001.81 128.173 1001.93 128.487 1002.17 128.74C1002.42 128.98 1002.73 129.18 1003.09 129.34C1003.46 129.487 1003.98 129.66 1004.65 129.86C1005.56 130.127 1006.3 130.393 1006.87 130.66C1007.44 130.927 1007.94 131.327 1008.35 131.86C1008.76 132.393 1008.97 133.093 1008.97 133.96C1008.97 134.707 1008.78 135.4 1008.39 136.04C1008 136.68 1007.44 137.193 1006.69 137.58C1005.94 137.953 1005.06 138.14 1004.03 138.14Z" fill="#633A92"/>
</svg>
