<svg width="485" height="249" viewBox="0 0 485 249" fill="none" xmlns="http://www.w3.org/2000/svg">
<path d="M483.266 33.9047C484.713 32.3474 484.022 29.7916 481.722 28.1962L444.246 2.19715C441.946 0.601725 438.909 0.570841 437.462 2.12817C436.015 3.6855 436.706 6.24132 439.006 7.83675L472.318 30.947L451.357 53.5053C449.91 55.0627 450.602 57.6185 452.901 59.2139C455.201 60.8094 458.238 60.8402 459.685 59.2829L483.266 33.9047ZM18.1384 128.784C185.173 86.9936 165.655 31.8543 480.194 35.0525L478.01 26.9794C161.934 23.7655 176.747 80.1276 13.3707 121.003L18.1384 128.784Z" fill="black"/>
<path d="M484.164 215.649C485.611 217.206 484.92 219.762 482.62 221.358L445.144 247.357C442.844 248.952 439.807 248.983 438.36 247.426C436.913 245.868 437.604 243.312 439.904 241.717L473.216 218.607L452.255 196.048C450.808 194.491 451.5 191.935 453.799 190.34C456.099 188.744 459.136 188.713 460.583 190.271L484.164 215.649ZM19.0364 120.769C186.071 162.56 166.553 217.699 481.092 214.501L478.908 222.574C162.832 225.788 177.645 169.426 14.2687 128.551L19.0364 120.769Z" fill="black"/>
</svg>
