<svg width="420" height="356" viewBox="0 0 420 356" fill="none" xmlns="http://www.w3.org/2000/svg">
<g clip-path="url(#clip0_7_184)">
<path d="M401.412 1.10034H19.8906C9.63863 1.10034 1.29883 8.16872 1.29883 16.8567V340.243C1.29883 348.931 9.63886 356 19.8906 356H401.412C411.661 356 420 348.931 420 340.243V16.8567C420 8.16872 411.661 1.10034 401.412 1.10034ZM19.8906 13.5627H401.412C403.554 13.5627 405.297 15.0407 405.297 16.8567V55.5286H16.0016V16.8567C16.0016 15.0407 17.7463 13.5627 19.8906 13.5627ZM401.412 343.538H19.8906C17.7463 343.538 16.0016 342.06 16.0016 340.243V67.991H405.297V340.243C405.297 342.06 403.554 343.538 401.412 343.538Z" fill="#333333"/>
<path d="M354.358 227.628H77.9213C66.9187 227.628 57.9673 235.216 57.9673 244.542V306.854C57.9673 316.179 66.9187 323.767 77.9213 323.767H354.358C365.361 323.767 374.312 316.179 374.312 306.854V244.542C374.312 235.216 365.361 227.628 354.358 227.628ZM359.61 306.853C359.61 309.306 357.254 311.304 354.358 311.304H77.9213C75.0258 311.304 72.6703 309.306 72.6703 306.853V244.541C72.6703 242.087 75.0261 240.09 77.9213 240.09H354.358C357.254 240.09 359.609 242.087 359.609 244.541L359.61 306.853Z" fill="#333333"/>
<path d="M77.9213 180.746H149.22C160.222 180.746 169.174 173.159 169.174 163.833V103.399C169.174 94.0727 160.222 86.4856 149.22 86.4856H77.9213C66.9187 86.4856 57.9673 94.0727 57.9673 103.399V163.833C57.9675 173.159 66.9187 180.746 77.9213 180.746ZM72.6703 103.399C72.6703 100.945 75.0261 98.948 77.9213 98.948H149.22C152.115 98.948 154.471 100.945 154.471 103.399V163.833C154.471 166.287 152.115 168.284 149.22 168.284H77.9213C75.0258 168.284 72.6703 166.287 72.6703 163.833V103.399Z" fill="#333333"/>
<path d="M366.961 197.065H65.3189C61.2587 197.065 57.9675 199.855 57.9675 203.296C57.9675 206.739 61.2587 209.528 65.3189 209.528H366.961C371.021 209.528 374.312 206.739 374.312 203.296C374.312 199.856 371.021 197.065 366.961 197.065Z" fill="#333333"/>
<path d="M366.961 164.574H200.33C196.27 164.574 192.979 167.364 192.979 170.806C192.979 174.247 196.27 177.037 200.33 177.037H366.961C371.021 177.037 374.313 174.247 374.313 170.806C374.313 167.364 371.021 164.574 366.961 164.574Z" fill="#333333"/>
<path d="M366.961 127.187H200.33C196.27 127.187 192.979 129.977 192.979 133.418C192.979 136.86 196.27 139.649 200.33 139.649H366.961C371.021 139.649 374.313 136.86 374.313 133.418C374.313 129.977 371.021 127.187 366.961 127.187Z" fill="#333333"/>
<path d="M366.961 89.7998H200.33C196.27 89.7998 192.979 92.5895 192.979 96.0312C192.979 99.4727 196.27 102.262 200.33 102.262H366.961C371.021 102.262 374.313 99.4727 374.313 96.0312C374.313 92.5897 371.021 89.7998 366.961 89.7998Z" fill="#333333"/>
<path d="M47.8131 43.9564C54.3383 43.9564 59.628 39.4728 59.628 33.942C59.628 28.4111 54.3383 23.9275 47.8131 23.9275C41.288 23.9275 35.9983 28.4111 35.9983 33.942C35.9983 39.4728 41.288 43.9564 47.8131 43.9564Z" fill="#333333"/>
<path d="M85.0954 43.9564C91.6205 43.9564 96.9102 39.4728 96.9102 33.942C96.9102 28.4111 91.6205 23.9275 85.0954 23.9275C78.5702 23.9275 73.2805 28.4111 73.2805 33.942C73.2805 39.4728 78.5702 43.9564 85.0954 43.9564Z" fill="#333333"/>
<path d="M122.377 43.9564C128.902 43.9564 134.192 39.4728 134.192 33.942C134.192 28.4111 128.902 23.9275 122.377 23.9275C115.852 23.9275 110.562 28.4111 110.562 33.942C110.562 39.4728 115.852 43.9564 122.377 43.9564Z" fill="#333333"/>
<rect opacity="0.73" x="50" y="188" width="330" height="30" fill="#633A92"/>
</g>
<defs>
<clipPath id="clip0_7_184">
<rect width="420" height="356" fill="white"/>
</clipPath>
</defs>
</svg>
