<svg width="984" height="258" viewBox="0 0 984 258" fill="none" xmlns="http://www.w3.org/2000/svg">
<g clip-path="url(#clip0_27_210)">
<path d="M15.0016 104.265H30.0456V100.36C30.0456 95.1537 30.9766 90.184 32.6693 85.6402C34.4255 80.9308 36.9857 76.671 40.1807 73.1212C43.3545 69.5714 47.1631 66.6842 51.3737 64.72C55.4362 62.8268 59.8796 61.7855 64.5345 61.7855H124.393V61.4542V37.4811C123.42 37.0788 122.489 36.5818 121.6 36.0138C120.352 35.1856 119.209 34.1916 118.193 33.0557C116.628 31.3044 115.358 29.1982 114.491 26.8553C113.665 24.6071 113.2 22.1222 113.2 19.5664C113.2 16.9868 113.665 14.5256 114.491 12.2774C115.358 9.93455 116.628 7.82832 118.193 6.07708C119.759 4.32584 121.642 2.90592 123.737 1.93563C125.747 0.989016 127.969 0.492043 130.254 0.492043C132.539 0.492043 134.761 1.01268 136.771 1.93563C138.866 2.90592 140.749 4.32584 142.314 6.07708C143.88 7.82832 145.15 9.93455 146.017 12.2774C146.842 14.5256 147.308 17.0105 147.308 19.5664C147.308 22.1459 146.842 24.6071 146.017 26.8553C145.15 29.1982 143.88 31.3044 142.314 33.0557L142.23 33.1503C141.235 34.2389 140.114 35.2092 138.908 36.0138C138.019 36.6055 137.088 37.1025 136.115 37.4811V61.4542V61.7855H195.973C200.628 61.7855 205.072 62.8268 209.134 64.72C213.366 66.6842 217.153 69.5477 220.327 73.1212C223.501 76.671 226.082 80.9308 227.839 85.6402C229.531 90.184 230.462 95.1537 230.462 100.36V104.265H244.977C246.987 104.265 248.934 104.715 250.711 105.543C252.552 106.395 254.202 107.649 255.578 109.187L255.662 109.282C257.017 110.82 258.096 112.619 258.836 114.63C259.577 116.618 259.979 118.772 259.979 121.044V165.819C259.979 168.067 259.577 170.244 258.836 172.232C258.075 174.267 256.953 176.137 255.578 177.675C252.869 180.704 249.103 182.597 244.977 182.597H230.441C230.378 187.591 229.447 192.395 227.817 196.773C226.061 201.506 223.501 205.742 220.306 209.292C217.132 212.842 213.324 215.729 209.113 217.693C205.05 219.587 200.607 220.628 195.952 220.628H64.5345C59.8796 220.628 55.4362 219.587 51.3737 217.693C47.1419 215.729 43.3545 212.866 40.1807 209.292C37.0068 205.742 34.4255 201.482 32.6693 196.773C31.04 192.395 30.1091 187.591 30.0456 182.597H15.0016C12.9915 182.597 11.0449 182.148 9.26758 181.32C7.42676 180.468 5.77637 179.213 4.40104 177.675L4.31641 177.58C2.96224 176.042 1.88314 174.244 1.14258 172.232C0.402018 170.244 0 168.067 0 165.819V121.044C0 118.795 0.402018 116.618 1.14258 114.63C1.9043 112.571 3.02572 110.726 4.40104 109.187C5.77637 107.649 7.42676 106.395 9.26758 105.543C11.0449 104.715 12.9704 104.265 15.0016 104.265ZM99.4466 176.279C99.1504 176.019 98.8965 175.735 98.6637 175.403C97.9655 174.457 97.6058 173.368 97.5846 172.256C97.5635 171.143 97.8809 170.031 98.5368 169.061C98.7695 168.73 99.0234 168.422 99.3408 168.138C100.441 167.12 101.901 166.576 103.34 166.552C104.779 166.529 106.217 167.002 107.36 167.972C111.296 171.356 115.189 173.818 119.04 175.451C122.848 177.06 126.615 177.817 130.339 177.77C134.084 177.722 137.871 176.847 141.743 175.214C145.658 173.557 149.593 171.072 153.592 167.878C154.777 166.931 156.237 166.505 157.676 166.576C159.115 166.647 160.553 167.215 161.632 168.28C161.908 168.564 162.161 168.872 162.394 169.227C163.029 170.22 163.325 171.356 163.262 172.469C163.198 173.581 162.796 174.67 162.077 175.593C161.823 175.9 161.527 176.208 161.188 176.468C156.174 180.515 151.138 183.591 146.038 185.698C140.918 187.804 135.734 188.916 130.487 188.987C125.218 189.058 120.013 188.064 114.829 185.958C109.688 183.875 104.567 180.681 99.5313 176.35L99.4466 176.279ZM86.2647 103.91C87.5342 103.91 88.8037 104.052 90.0098 104.336C91.237 104.62 92.443 105.022 93.6068 105.567C94.7917 106.111 95.9131 106.773 96.9499 107.554C97.9655 108.312 98.9177 109.164 99.764 110.11L99.891 110.229C100.78 111.223 101.584 112.311 102.282 113.494L102.324 113.565C103.001 114.701 103.594 115.932 104.059 117.234C104.546 118.535 104.906 119.884 105.16 121.257C105.392 122.629 105.54 124.026 105.54 125.445C105.54 126.865 105.413 128.285 105.16 129.634C104.906 131.007 104.546 132.356 104.059 133.681C103.573 135.006 102.98 136.261 102.282 137.42C101.563 138.627 100.758 139.716 99.891 140.686C98.1348 142.65 95.9977 144.259 93.6068 145.348C92.443 145.892 91.237 146.295 89.9886 146.579C88.7614 146.839 87.513 146.981 86.2435 146.981C84.974 146.981 83.7044 146.839 82.4984 146.579C81.2712 146.295 80.0651 145.892 78.8802 145.348C77.6953 144.804 76.5739 144.141 75.5371 143.36C74.458 142.556 73.4847 141.656 72.6172 140.686C71.7285 139.692 70.9245 138.603 70.2262 137.42L70.1839 137.349C69.5068 136.213 68.9144 134.983 68.4489 133.681C67.9622 132.379 67.6025 131.031 67.3486 129.658C67.1159 128.285 66.9889 126.889 66.9889 125.469C66.9889 124.049 67.1159 122.629 67.3486 121.28C67.6025 119.908 67.9622 118.559 68.4489 117.257C68.9355 115.932 69.528 114.678 70.2262 113.518C70.9456 112.311 71.7497 111.223 72.6172 110.252C73.5059 109.258 74.4792 108.359 75.5371 107.578L75.6006 107.531C76.6162 106.773 77.7165 106.111 78.8802 105.59C80.0439 105.046 81.25 104.644 82.4772 104.36C83.7256 104.052 84.9951 103.91 86.2647 103.91ZM90.4118 114.275C89.777 113.991 89.0999 113.755 88.4017 113.589C87.7246 113.447 87.0052 113.352 86.2647 113.352C85.5241 113.352 84.8047 113.423 84.1276 113.589C83.4082 113.755 82.7311 113.968 82.1175 114.275C81.4616 114.583 80.848 114.938 80.2555 115.388C79.6842 115.814 79.1341 116.334 78.6051 116.926C78.0762 117.518 77.6318 118.133 77.2298 118.772C76.8278 119.434 76.5104 120.121 76.2354 120.831C75.9814 121.541 75.7699 122.298 75.6218 123.079C75.4948 123.836 75.4102 124.641 75.4102 125.469C75.4102 126.297 75.4736 127.102 75.6218 127.859C75.7699 128.664 75.9603 129.421 76.2354 130.108C76.5104 130.841 76.8278 131.527 77.2298 132.166C77.6107 132.805 78.0762 133.421 78.6051 134.012C79.1341 134.604 79.6842 135.101 80.2555 135.551C80.8268 135.977 81.4616 136.355 82.1175 136.663L82.181 136.71C82.7946 136.994 83.4294 137.207 84.1276 137.349C84.8047 137.491 85.5241 137.586 86.2647 137.586C87.0052 137.586 87.7246 137.515 88.4017 137.349C89.1211 137.184 89.777 136.971 90.4118 136.687C91.0677 136.379 91.6813 136 92.2738 135.574C92.8451 135.148 93.3952 134.628 93.9242 134.036C94.4531 133.444 94.8975 132.829 95.2995 132.19C95.7015 131.527 96.0189 130.841 96.2939 130.131C96.5479 129.421 96.7594 128.664 96.9076 127.883C97.0345 127.126 97.1191 126.321 97.1191 125.493C97.1191 124.665 97.0557 123.86 96.9076 123.103C96.7594 122.298 96.569 121.541 96.2939 120.854C96.0189 120.121 95.7015 119.434 95.2995 118.772C94.8975 118.109 94.4531 117.494 93.9453 116.926L93.8395 116.808C93.3529 116.287 92.8451 115.814 92.2949 115.411C91.7025 114.938 91.0677 114.559 90.4118 114.275ZM174.243 103.91C175.513 103.91 176.782 104.052 177.988 104.336C179.216 104.62 180.422 105.022 181.585 105.567C182.77 106.111 183.892 106.773 184.928 107.554C185.923 108.312 186.854 109.14 187.7 110.087C187.743 110.134 187.806 110.181 187.848 110.229C188.737 111.223 189.541 112.311 190.239 113.494L190.282 113.565C190.959 114.701 191.551 115.932 192.017 117.234C192.503 118.535 192.863 119.884 193.117 121.257C193.35 122.629 193.477 124.026 193.477 125.445C193.477 126.865 193.35 128.285 193.117 129.634C192.863 131.007 192.503 132.356 192.017 133.681C191.53 135.006 190.938 136.261 190.239 137.42C189.52 138.627 188.716 139.716 187.848 140.686C186.96 141.68 185.986 142.579 184.928 143.36L184.865 143.408C183.828 144.165 182.749 144.827 181.585 145.348C180.422 145.892 179.216 146.295 177.967 146.579C176.74 146.839 175.492 146.981 174.222 146.981C172.952 146.981 171.683 146.839 170.477 146.579C169.25 146.295 168.044 145.892 166.859 145.348C165.653 144.78 164.531 144.117 163.516 143.36L163.41 143.266C162.394 142.485 161.442 141.633 160.596 140.686C159.707 139.692 158.903 138.603 158.205 137.42L158.162 137.349C157.485 136.213 156.893 134.983 156.427 133.681C155.941 132.379 155.581 131.031 155.327 129.658C155.094 128.285 154.946 126.889 154.946 125.469C154.946 124.049 155.073 122.629 155.327 121.28C155.581 119.908 155.941 118.559 156.427 117.257C156.914 115.932 157.507 114.678 158.205 113.518C158.924 112.311 159.728 111.223 160.596 110.252C161.463 109.282 162.458 108.383 163.516 107.578C164.552 106.797 165.674 106.134 166.859 105.567C168.022 105.022 169.229 104.62 170.456 104.336C171.725 104.052 172.974 103.91 174.243 103.91ZM178.411 114.275C177.777 113.991 177.1 113.755 176.401 113.589C175.724 113.447 175.005 113.352 174.264 113.352C173.524 113.352 172.804 113.423 172.127 113.589C171.408 113.755 170.731 113.968 170.117 114.275C169.461 114.583 168.848 114.938 168.255 115.388C167.684 115.814 167.134 116.334 166.605 116.926C166.076 117.518 165.632 118.133 165.229 118.772C164.827 119.434 164.51 120.121 164.235 120.831C163.981 121.541 163.77 122.298 163.621 123.079C163.494 123.836 163.41 124.641 163.41 125.469C163.41 126.297 163.473 127.102 163.621 127.859C163.77 128.664 163.96 129.421 164.235 130.108C164.51 130.841 164.827 131.527 165.229 132.166C165.61 132.805 166.076 133.421 166.605 134.012C167.134 134.604 167.684 135.101 168.255 135.551C168.826 135.977 169.461 136.355 170.117 136.663L170.181 136.71C170.794 136.994 171.429 137.207 172.127 137.349C172.804 137.491 173.524 137.586 174.264 137.586C175.005 137.586 175.724 137.515 176.401 137.349C177.121 137.184 177.777 136.971 178.411 136.687C179.067 136.379 179.681 136 180.273 135.574C180.866 135.125 181.416 134.628 181.924 134.06C182.453 133.468 182.897 132.853 183.299 132.214C183.701 131.551 184.019 130.865 184.294 130.155C184.548 129.445 184.759 128.688 184.907 127.907C185.034 127.149 185.119 126.345 185.119 125.516C185.119 124.688 185.055 123.884 184.907 123.126C184.759 122.322 184.569 121.564 184.294 120.878C184.019 120.144 183.701 119.458 183.299 118.795C182.897 118.133 182.453 117.518 181.945 116.95L181.839 116.831C181.353 116.311 180.845 115.837 180.295 115.435C179.681 114.938 179.067 114.559 178.411 114.275ZM38.488 108.998V182.053C38.488 185.982 39.1862 189.721 40.4557 193.152C41.7887 196.702 43.7142 199.921 46.1263 202.618C48.5384 205.316 51.416 207.494 54.5898 208.961C57.6367 210.381 61.001 211.162 64.5133 211.162H195.973C199.486 211.162 202.829 210.381 205.897 208.961C209.071 207.47 211.948 205.316 214.36 202.618C216.772 199.921 218.719 196.702 220.031 193.152C221.3 189.744 221.999 185.982 221.999 182.053V100.36C221.999 96.4317 221.3 92.6689 220.031 89.261C218.698 85.7112 216.772 82.4927 214.36 79.7949C211.948 77.097 209.071 74.9198 205.897 73.4525C202.85 72.0326 199.486 71.2517 195.973 71.2517H64.5345C61.0221 71.2517 57.679 72.0326 54.611 73.4525C51.4372 74.9435 48.5596 77.097 46.1475 79.7949C43.7354 82.4927 41.7887 85.7112 40.4769 89.261C39.2074 92.6689 38.5091 96.4317 38.5091 100.36V108.998H38.488ZM30.0456 113.707H15.0016C14.113 113.707 13.2666 113.897 12.5049 114.252C11.7008 114.63 10.9814 115.175 10.3678 115.861L10.2832 115.932C9.71191 116.595 9.24642 117.376 8.92904 118.228C8.61165 119.079 8.44238 120.026 8.44238 121.02V165.795C8.44238 166.789 8.61165 167.736 8.92904 168.588C9.26758 169.487 9.75423 170.291 10.3678 170.978C11.5527 172.303 13.182 173.131 14.9805 173.131H30.0244V113.707H30.0456ZM244.998 113.707H230.483V173.131H244.998C245.887 173.131 246.733 172.942 247.495 172.587C248.299 172.208 249.019 171.664 249.632 170.978C250.246 170.291 250.732 169.487 251.071 168.588C251.388 167.736 251.558 166.789 251.558 165.795V121.044C251.558 120.05 251.388 119.103 251.071 118.251C250.732 117.352 250.246 116.547 249.632 115.861C249.019 115.175 248.299 114.63 247.495 114.252C246.733 113.92 245.887 113.707 244.998 113.707Z" fill="black"/>
</g>
<path d="M981.561 43.9201C982.66 42.5814 981.332 40.3908 978.594 39.027L933.984 16.8039C931.247 15.4401 928.137 15.4198 927.038 16.7584C925.939 18.097 927.267 20.2877 930.005 21.6515L969.658 41.4054L953.739 60.7957C952.64 62.1343 953.968 64.325 956.706 65.6888C959.443 67.0525 962.554 67.0728 963.652 65.7342L981.561 43.9201ZM259.576 138.717C517.73 97.1587 489.256 41.7086 978.702 44.9107L974.507 37.9909C483.872 34.781 508.754 90.8322 253.395 131.94L259.576 138.717Z" fill="black"/>
<path d="M982.957 226.503C984.056 227.842 982.727 230.033 979.99 231.396L935.38 253.62C932.642 254.983 929.532 255.004 928.433 253.665C927.334 252.326 928.663 250.136 931.4 248.772L971.053 229.018L955.135 209.628C954.036 208.289 955.364 206.098 958.101 204.735C960.839 203.371 963.949 203.351 965.048 204.689L982.957 226.503ZM260.971 131.707C519.125 173.265 490.652 228.715 980.098 225.513L975.902 232.433C485.267 235.642 510.15 179.591 254.79 138.483L260.971 131.707Z" fill="black"/>
<defs>
<clipPath id="clip0_27_210">
<rect width="260" height="220.183" fill="white" transform="translate(0 0.444916)"/>
</clipPath>
</defs>
</svg>
