<svg width="1180" height="618" viewBox="0 0 1180 618" fill="none" xmlns="http://www.w3.org/2000/svg">
<path d="M191.534 271.588C191.307 272.95 192.226 274.238 193.588 274.466L215.78 278.176C217.142 278.404 218.43 277.484 218.658 276.122C218.885 274.761 217.966 273.472 216.604 273.244L196.878 269.946L200.176 250.22C200.404 248.858 199.484 247.57 198.122 247.342C196.761 247.115 195.472 248.034 195.244 249.396L191.534 271.588ZM569.548 0.964937L192.548 269.965L195.452 274.035L572.452 5.03506L569.548 0.964937Z" fill="black"/>
<path d="M950.466 271.588C950.693 272.95 949.774 274.238 948.412 274.466L926.22 278.176C924.858 278.404 923.57 277.484 923.342 276.122C923.115 274.761 924.034 273.472 925.396 273.244L945.122 269.946L941.824 250.22C941.596 248.858 942.516 247.57 943.878 247.342C945.239 247.115 946.528 248.034 946.756 249.396L950.466 271.588ZM572.452 0.964937L949.452 269.965L946.548 274.035L569.548 5.03506L572.452 0.964937Z" fill="black"/>
<path d="M224.99 347.019C218.385 335.969 208.281 328.276 198.557 322.836C188.828 317.398 179.335 314.162 173.779 312.229C169.545 310.771 165.075 308.88 162.005 306.874C160.468 305.884 159.303 304.87 158.658 304.044C157.998 303.199 157.866 302.679 157.861 302.266C157.861 298.339 157.861 293.428 157.861 286.856C158.472 285.422 159.112 284.252 159.835 283.166C161.059 281.301 162.689 279.417 164.324 276.583C165.681 274.22 166.892 271.246 167.829 267.353C168.652 266.981 169.473 266.551 170.274 266.032C172.729 264.46 174.806 262.17 176.504 259.174C178.221 256.165 179.703 252.392 181.282 247.282L181.269 247.316L181.282 247.278C182.094 244.627 182.484 242.298 182.485 240.179C182.513 236.775 181.365 233.824 179.467 231.832C178.805 231.127 178.089 230.594 177.37 230.133C177.609 227.512 178.041 224.035 178.451 220.026C178.925 215.373 179.353 210.052 179.353 204.542C179.335 195.824 178.334 186.618 174.357 178.673C172.363 174.711 169.568 171.066 165.75 168.188C162.232 165.529 157.84 163.624 152.745 162.62C149.287 160.161 145.938 158.008 141.764 156.512C137.259 154.892 132.058 154.142 125.188 154.146C123.021 154.146 120.675 154.218 118.109 154.362C110.937 154.393 105.065 155.201 99.3952 155.187C95.4403 155.184 91.5372 154.833 87.0151 153.639L84.5922 153L82.662 154.499C76.7231 159.177 73.5354 166.148 71.5853 173.893C69.6584 181.672 69.0341 190.418 69.0283 199.088C69.0302 210.403 70.1205 221.58 71.0476 229.968C70.3409 230.395 69.6386 230.886 68.9726 231.543C66.9256 233.531 65.6425 236.606 65.6778 240.172C65.6798 242.287 66.0692 244.615 66.881 247.264L66.8849 247.278C68.9949 254.087 70.9028 258.548 73.484 261.932C74.7705 263.613 76.2653 264.989 77.8894 266.031C78.6867 266.547 79.5024 266.974 80.322 267.345C81.792 273.171 84.2677 277.394 86.3907 280.451C87.5847 282.181 88.6396 283.556 89.2921 284.585C89.9169 285.548 90.1025 286.098 90.1398 286.349C90.1398 293.19 90.1398 298.232 90.1398 302.266C90.1417 302.586 90.0061 303.15 89.2718 304.054C88.2076 305.392 85.886 307.098 83.1032 308.542C80.3253 310.011 77.1159 311.284 74.307 312.202C66.744 314.685 52.3943 319.531 39.6897 328.964C33.3376 333.686 27.3744 339.595 22.9894 346.975C18.6024 354.349 15.8487 363.194 15.8584 373.474C15.8584 375.259 15.9403 377.092 16.1088 378.966L16.4721 383H231.528L231.891 378.966C232.06 377.095 232.142 375.269 232.142 373.484C232.151 363.208 229.39 354.376 224.99 347.019ZM222.615 374.196H25.3851C25.3812 373.959 25.3517 373.707 25.3517 373.474C25.359 364.631 27.6544 357.386 31.3051 351.222C36.7733 341.998 45.4692 335.189 54.3004 330.25C63.1242 325.311 71.9573 322.302 77.4622 320.504C81.7993 319.08 86.8368 317.02 91.1274 314.258C93.2727 312.869 95.2475 311.304 96.8343 309.375C98.4013 307.47 99.6306 305.052 99.6321 302.266C99.6321 298.156 99.6321 293.021 99.6321 285.978V285.751L99.6059 285.524C99.3482 283.323 98.4046 281.586 97.4533 280.09C95.9939 277.834 94.3533 275.87 92.8532 273.325C91.3589 270.791 89.9664 267.73 89.1395 263.421L88.659 260.903L86.0633 260.043C84.8765 259.648 84.0274 259.266 83.3115 258.805C82.2585 258.111 81.2834 257.182 80.0449 255.046C78.8248 252.925 77.4845 249.657 76.0139 244.863V244.86C75.3818 242.817 75.1701 241.269 75.1701 240.172C75.2074 238.287 75.6594 237.844 75.9045 237.558C76.1675 237.283 76.6368 237.074 77.1575 236.967L81.2849 236.11L80.8417 232.21C79.8681 223.654 78.5206 211.307 78.5206 199.088C78.5167 190.83 79.1488 182.635 80.8344 175.87C82.2328 170.157 84.4261 165.618 87.1555 162.729C91.5406 163.657 95.6011 163.994 99.3947 163.991C106.086 163.978 111.931 163.145 118.366 163.159H118.518L118.68 163.152C121.092 163.014 123.25 162.949 125.188 162.949C131.365 162.952 135.217 163.606 138.343 164.723C141.465 165.841 144.139 167.543 147.754 170.154L148.685 170.824L149.844 171.013C154.084 171.718 157.225 173.118 159.76 175.02C163.537 177.86 166.081 182.053 167.685 187.253C169.283 192.432 169.865 198.506 169.86 204.542C169.862 209.625 169.461 214.68 168.999 219.196C168.538 223.718 168.019 227.663 167.787 230.744H167.788C167.746 231.292 167.694 231.762 167.634 232.292L167.214 236.044L171.146 237.004C171.648 237.127 172.045 237.327 172.298 237.602C172.533 237.888 172.961 238.383 172.991 240.179C172.991 241.272 172.78 242.816 172.155 244.849L172.151 244.859C170.195 251.263 168.443 254.915 166.954 256.817C166.207 257.777 165.566 258.337 164.85 258.805C164.134 259.266 163.285 259.648 162.099 260.043L159.503 260.903L159.022 263.42C158.456 266.388 157.776 268.527 157.059 270.206C155.976 272.716 154.813 274.271 153.315 276.324C151.832 278.35 150.044 280.871 148.648 284.485L148.366 285.208V285.978C148.366 293.021 148.366 298.156 148.366 302.266C148.361 304.955 149.494 307.366 151.01 309.261C153.311 312.125 156.456 314.196 159.854 316.005C163.261 317.797 166.967 319.266 170.451 320.476C177.819 323.018 191.104 327.619 202.34 335.949C207.955 340.107 213.025 345.152 216.684 351.284C220.338 357.426 222.639 364.649 222.646 373.484C222.648 373.714 222.619 373.962 222.615 374.196Z" fill="black"/>
<path d="M671.99 510.019C665.385 498.969 655.281 491.276 645.557 485.836C635.828 480.398 626.335 477.162 620.779 475.229C616.545 473.771 612.075 471.88 609.005 469.874C607.468 468.884 606.303 467.87 605.658 467.044C604.998 466.199 604.866 465.679 604.861 465.266C604.861 461.339 604.861 456.428 604.861 449.856C605.472 448.422 606.112 447.252 606.835 446.166C608.059 444.301 609.689 442.417 611.324 439.583C612.681 437.22 613.892 434.246 614.829 430.353C615.652 429.981 616.473 429.551 617.274 429.032C619.729 427.46 621.806 425.17 623.504 422.174C625.221 419.165 626.703 415.392 628.282 410.282L628.269 410.316L628.282 410.278C629.094 407.627 629.484 405.298 629.485 403.179C629.513 399.775 628.365 396.824 626.467 394.832C625.805 394.127 625.089 393.594 624.37 393.133C624.609 390.512 625.041 387.035 625.451 383.026C625.925 378.373 626.353 373.052 626.353 367.542C626.335 358.824 625.334 349.618 621.357 341.673C619.363 337.711 616.568 334.066 612.75 331.188C609.232 328.529 604.84 326.624 599.745 325.62C596.287 323.161 592.938 321.008 588.764 319.512C584.259 317.892 579.058 317.142 572.188 317.146C570.021 317.146 567.675 317.218 565.109 317.362C557.937 317.393 552.065 318.201 546.395 318.187C542.44 318.184 538.537 317.833 534.015 316.639L531.592 316L529.662 317.499C523.723 322.177 520.535 329.148 518.585 336.893C516.658 344.672 516.034 353.418 516.028 362.088C516.03 373.403 517.121 384.58 518.048 392.968C517.341 393.395 516.639 393.886 515.973 394.543C513.926 396.531 512.642 399.606 512.678 403.172C512.68 405.287 513.069 407.615 513.881 410.264L513.885 410.278C515.995 417.087 517.903 421.548 520.484 424.932C521.771 426.613 523.265 427.989 524.889 429.031C525.687 429.547 526.502 429.974 527.322 430.345C528.792 436.171 531.268 440.394 533.391 443.451C534.585 445.181 535.64 446.556 536.292 447.585C536.917 448.548 537.102 449.098 537.14 449.349C537.14 456.19 537.14 461.232 537.14 465.266C537.142 465.586 537.006 466.15 536.272 467.054C535.208 468.392 532.886 470.098 530.103 471.542C527.325 473.011 524.116 474.284 521.307 475.202C513.744 477.685 499.394 482.531 486.69 491.964C480.338 496.686 474.374 502.595 469.989 509.975C465.602 517.349 462.849 526.194 462.858 536.474C462.858 538.259 462.94 540.092 463.109 541.966L463.472 546H678.528L678.891 541.966C679.06 540.095 679.142 538.269 679.142 536.484C679.151 526.208 676.39 517.376 671.99 510.019ZM669.615 537.196H472.385C472.381 536.959 472.352 536.707 472.352 536.474C472.359 527.631 474.654 520.386 478.305 514.222C483.773 504.998 492.469 498.189 501.3 493.25C510.124 488.311 518.957 485.302 524.462 483.504C528.799 482.08 533.837 480.02 538.127 477.258C540.273 475.869 542.247 474.304 543.834 472.375C545.401 470.47 546.631 468.052 546.632 465.266C546.632 461.156 546.632 456.021 546.632 448.978V448.751L546.606 448.524C546.348 446.323 545.405 444.586 544.453 443.09C542.994 440.834 541.353 438.87 539.853 436.325C538.359 433.791 536.966 430.73 536.14 426.421L535.659 423.903L533.063 423.043C531.877 422.648 531.027 422.266 530.312 421.805C529.258 421.111 528.283 420.182 527.045 418.046C525.825 415.925 524.484 412.657 523.014 407.863V407.86C522.382 405.817 522.17 404.269 522.17 403.172C522.207 401.287 522.659 400.844 522.904 400.558C523.167 400.283 523.637 400.074 524.158 399.967L528.285 399.11L527.842 395.21C526.868 386.654 525.521 374.307 525.521 362.088C525.517 353.83 526.149 345.635 527.834 338.87C529.233 333.157 531.426 328.618 534.156 325.729C538.541 326.657 542.601 326.994 546.395 326.991C553.086 326.978 558.931 326.145 565.366 326.159H565.518L565.68 326.152C568.092 326.014 570.25 325.949 572.188 325.949C578.365 325.952 582.217 326.606 585.343 327.723C588.465 328.841 591.139 330.543 594.754 333.154L595.685 333.824L596.844 334.013C601.084 334.718 604.225 336.118 606.76 338.02C610.537 340.86 613.081 345.053 614.685 350.253C616.283 355.432 616.865 361.506 616.86 367.542C616.862 372.625 616.461 377.68 615.999 382.196C615.538 386.718 615.019 390.663 614.787 393.744H614.788C614.746 394.292 614.694 394.762 614.634 395.292L614.214 399.044L618.146 400.004C618.648 400.127 619.045 400.327 619.298 400.602C619.533 400.888 619.961 401.383 619.991 403.179C619.991 404.272 619.78 405.816 619.155 407.849L619.151 407.859C617.195 414.263 615.443 417.915 613.954 419.817C613.207 420.777 612.566 421.337 611.85 421.805C611.134 422.266 610.285 422.648 609.099 423.043L606.503 423.903L606.022 426.42C605.456 429.388 604.776 431.527 604.059 433.206C602.976 435.716 601.813 437.271 600.315 439.324C598.832 441.35 597.044 443.871 595.648 447.485L595.366 448.208V448.978C595.366 456.021 595.366 461.156 595.366 465.266C595.361 467.955 596.494 470.366 598.01 472.261C600.311 475.125 603.456 477.196 606.854 479.005C610.261 480.797 613.967 482.266 617.451 483.476C624.819 486.018 638.104 490.619 649.34 498.949C654.955 503.107 660.025 508.152 663.684 514.284C667.338 520.426 669.639 527.649 669.646 536.484C669.648 536.714 669.619 536.962 669.615 537.196Z" fill="black"/>
<path d="M1156.99 347.019C1150.39 335.969 1140.28 328.276 1130.56 322.836C1120.83 317.398 1111.33 314.162 1105.78 312.229C1101.55 310.771 1097.08 308.88 1094.01 306.874C1092.47 305.884 1091.3 304.87 1090.66 304.044C1090 303.199 1089.87 302.679 1089.86 302.266C1089.86 298.339 1089.86 293.428 1089.86 286.856C1090.47 285.422 1091.11 284.252 1091.84 283.166C1093.06 281.301 1094.69 279.417 1096.32 276.583C1097.68 274.22 1098.89 271.246 1099.83 267.353C1100.65 266.981 1101.47 266.551 1102.27 266.032C1104.73 264.46 1106.81 262.17 1108.5 259.174C1110.22 256.165 1111.7 252.392 1113.28 247.282L1113.27 247.316L1113.28 247.278C1114.09 244.627 1114.48 242.298 1114.49 240.179C1114.51 236.775 1113.37 233.824 1111.47 231.832C1110.81 231.127 1110.09 230.594 1109.37 230.133C1109.61 227.512 1110.04 224.035 1110.45 220.026C1110.93 215.373 1111.35 210.052 1111.35 204.542C1111.33 195.824 1110.33 186.618 1106.36 178.673C1104.36 174.711 1101.57 171.066 1097.75 168.188C1094.23 165.529 1089.84 163.624 1084.74 162.62C1081.29 160.161 1077.94 158.008 1073.76 156.512C1069.26 154.892 1064.06 154.142 1057.19 154.146C1055.02 154.146 1052.68 154.218 1050.11 154.362C1042.94 154.393 1037.07 155.201 1031.4 155.187C1027.44 155.184 1023.54 154.833 1019.02 153.639L1016.59 153L1014.66 154.499C1008.72 159.177 1005.54 166.148 1003.59 173.893C1001.66 181.672 1001.03 190.418 1001.03 199.088C1001.03 210.403 1002.12 221.58 1003.05 229.968C1002.34 230.395 1001.64 230.886 1000.97 231.543C998.926 233.531 997.642 236.606 997.678 240.172C997.68 242.287 998.069 244.615 998.881 247.264L998.885 247.278C1000.99 254.087 1002.9 258.548 1005.48 261.932C1006.77 263.613 1008.27 264.989 1009.89 266.031C1010.69 266.547 1011.5 266.974 1012.32 267.345C1013.79 273.171 1016.27 277.394 1018.39 280.451C1019.58 282.181 1020.64 283.556 1021.29 284.585C1021.92 285.548 1022.1 286.098 1022.14 286.349C1022.14 293.19 1022.14 298.232 1022.14 302.266C1022.14 302.586 1022.01 303.15 1021.27 304.054C1020.21 305.392 1017.89 307.098 1015.1 308.542C1012.33 310.011 1009.12 311.284 1006.31 312.202C998.744 314.685 984.394 319.531 971.69 328.964C965.338 333.686 959.374 339.595 954.989 346.975C950.602 354.349 947.849 363.194 947.858 373.474C947.858 375.259 947.94 377.092 948.109 378.966L948.472 383H1163.53L1163.89 378.966C1164.06 377.095 1164.14 375.269 1164.14 373.484C1164.15 363.208 1161.39 354.376 1156.99 347.019ZM1154.61 374.196H957.385C957.381 373.959 957.352 373.707 957.352 373.474C957.359 364.631 959.654 357.386 963.305 351.222C968.773 341.998 977.469 335.189 986.3 330.25C995.124 325.311 1003.96 322.302 1009.46 320.504C1013.8 319.08 1018.84 317.02 1023.13 314.258C1025.27 312.869 1027.25 311.304 1028.83 309.375C1030.4 307.47 1031.63 305.052 1031.63 302.266C1031.63 298.156 1031.63 293.021 1031.63 285.978V285.751L1031.61 285.524C1031.35 283.323 1030.4 281.586 1029.45 280.09C1027.99 277.834 1026.35 275.87 1024.85 273.325C1023.36 270.791 1021.97 267.73 1021.14 263.421L1020.66 260.903L1018.06 260.043C1016.88 259.648 1016.03 259.266 1015.31 258.805C1014.26 258.111 1013.28 257.182 1012.04 255.046C1010.82 252.925 1009.48 249.657 1008.01 244.863V244.86C1007.38 242.817 1007.17 241.269 1007.17 240.172C1007.21 238.287 1007.66 237.844 1007.9 237.558C1008.17 237.283 1008.64 237.074 1009.16 236.967L1013.28 236.11L1012.84 232.21C1011.87 223.654 1010.52 211.307 1010.52 199.088C1010.52 190.83 1011.15 182.635 1012.83 175.87C1014.23 170.157 1016.43 165.618 1019.16 162.729C1023.54 163.657 1027.6 163.994 1031.39 163.991C1038.09 163.978 1043.93 163.145 1050.37 163.159H1050.52L1050.68 163.152C1053.09 163.014 1055.25 162.949 1057.19 162.949C1063.37 162.952 1067.22 163.606 1070.34 164.723C1073.47 165.841 1076.14 167.543 1079.75 170.154L1080.69 170.824L1081.84 171.013C1086.08 171.718 1089.23 173.118 1091.76 175.02C1095.54 177.86 1098.08 182.053 1099.68 187.253C1101.28 192.432 1101.86 198.506 1101.86 204.542C1101.86 209.625 1101.46 214.68 1101 219.196C1100.54 223.718 1100.02 227.663 1099.79 230.744H1099.79C1099.75 231.292 1099.69 231.762 1099.63 232.292L1099.21 236.044L1103.15 237.004C1103.65 237.127 1104.05 237.327 1104.3 237.602C1104.53 237.888 1104.96 238.383 1104.99 240.179C1104.99 241.272 1104.78 242.816 1104.16 244.849L1104.15 244.859C1102.2 251.263 1100.44 254.915 1098.95 256.817C1098.21 257.777 1097.57 258.337 1096.85 258.805C1096.13 259.266 1095.28 259.648 1094.1 260.043L1091.5 260.903L1091.02 263.42C1090.46 266.388 1089.78 268.527 1089.06 270.206C1087.98 272.716 1086.81 274.271 1085.31 276.324C1083.83 278.35 1082.04 280.871 1080.65 284.485L1080.37 285.208V285.978C1080.37 293.021 1080.37 298.156 1080.37 302.266C1080.36 304.955 1081.49 307.366 1083.01 309.261C1085.31 312.125 1088.46 314.196 1091.85 316.005C1095.26 317.797 1098.97 319.266 1102.45 320.476C1109.82 323.018 1123.1 327.619 1134.34 335.949C1139.95 340.107 1145.03 345.152 1148.68 351.284C1152.34 357.426 1154.64 364.649 1154.65 373.484C1154.65 373.714 1154.62 373.962 1154.61 374.196Z" fill="black"/>
<path d="M93.2853 402.496V436H86.5653V414.208L77.5893 436H72.5013L63.4773 414.208V436H56.7573V402.496H64.3893L75.0453 427.408L85.7013 402.496H93.2853ZM120.473 429.616H107.129L104.921 436H97.8652L109.913 402.448H117.737L129.785 436H122.681L120.473 429.616ZM118.649 424.24L113.801 410.224L108.953 424.24H118.649ZM151.569 436L144.177 422.944H141.009V436H134.289V402.496H146.865C149.457 402.496 151.665 402.96 153.489 403.888C155.313 404.784 156.673 406.016 157.569 407.584C158.497 409.12 158.961 410.848 158.961 412.768C158.961 414.976 158.321 416.976 157.041 418.768C155.761 420.528 153.857 421.744 151.329 422.416L159.345 436H151.569ZM141.009 417.904H146.625C148.449 417.904 149.809 417.472 150.705 416.608C151.601 415.712 152.049 414.48 152.049 412.912C152.049 411.376 151.601 410.192 150.705 409.36C149.809 408.496 148.449 408.064 146.625 408.064H141.009V417.904ZM183.951 436L171.759 421.072V436H165.039V402.496H171.759V417.52L183.951 402.496H192.063L178.239 419.104L192.447 436H183.951Z" fill="black"/>
<path d="M548.687 581.816C550.575 582.168 552.127 583.112 553.343 584.648C554.559 586.184 555.167 587.944 555.167 589.928C555.167 591.72 554.719 593.304 553.823 594.68C552.959 596.024 551.695 597.08 550.031 597.848C548.367 598.616 546.399 599 544.127 599H529.679V565.496H543.503C545.775 565.496 547.727 565.864 549.359 566.6C551.023 567.336 552.271 568.36 553.103 569.672C553.967 570.984 554.399 572.472 554.399 574.136C554.399 576.088 553.871 577.72 552.815 579.032C551.791 580.344 550.415 581.272 548.687 581.816ZM536.399 579.32H542.543C544.143 579.32 545.375 578.968 546.239 578.264C547.103 577.528 547.535 576.488 547.535 575.144C547.535 573.8 547.103 572.76 546.239 572.024C545.375 571.288 544.143 570.92 542.543 570.92H536.399V579.32ZM543.167 593.528C544.799 593.528 546.063 593.144 546.959 592.376C547.887 591.608 548.351 590.52 548.351 589.112C548.351 587.672 547.871 586.552 546.911 585.752C545.951 584.92 544.655 584.504 543.023 584.504H536.399V593.528H543.167ZM567.243 565.496V599H560.523V565.496H567.243ZM580.602 593.672H591.642V599H573.882V565.496H580.602V593.672ZM602.634 593.672H613.674V599H595.914V565.496H602.634V593.672Z" fill="black"/>
<path d="M999.294 436.336C996.958 436.336 994.846 435.936 992.958 435.136C991.102 434.336 989.63 433.184 988.542 431.68C987.454 430.176 986.894 428.4 986.862 426.352H994.062C994.158 427.728 994.638 428.816 995.502 429.616C996.398 430.416 997.614 430.816 999.15 430.816C1000.72 430.816 1001.95 430.448 1002.85 429.712C1003.74 428.944 1004.19 427.952 1004.19 426.736C1004.19 425.744 1003.89 424.928 1003.28 424.288C1002.67 423.648 1001.9 423.152 1000.97 422.8C1000.08 422.416 998.83 422 997.23 421.552C995.054 420.912 993.278 420.288 991.902 419.68C990.558 419.04 989.39 418.096 988.398 416.848C987.438 415.568 986.958 413.872 986.958 411.76C986.958 409.776 987.454 408.048 988.446 406.576C989.438 405.104 990.83 403.984 992.622 403.216C994.414 402.416 996.462 402.016 998.766 402.016C1002.22 402.016 1005.02 402.864 1007.17 404.56C1009.34 406.224 1010.54 408.56 1010.77 411.568H1003.37C1003.31 410.416 1002.81 409.472 1001.89 408.736C1000.99 407.968 999.79 407.584 998.286 407.584C996.974 407.584 995.918 407.92 995.118 408.592C994.35 409.264 993.966 410.24 993.966 411.52C993.966 412.416 994.254 413.168 994.83 413.776C995.438 414.352 996.174 414.832 997.038 415.216C997.934 415.568 999.182 415.984 1000.78 416.464C1002.96 417.104 1004.73 417.744 1006.11 418.384C1007.49 419.024 1008.67 419.984 1009.66 421.264C1010.65 422.544 1011.15 424.224 1011.15 426.304C1011.15 428.096 1010.69 429.76 1009.76 431.296C1008.83 432.832 1007.47 434.064 1005.68 434.992C1003.89 435.888 1001.76 436.336 999.294 436.336ZM1039.78 402.496V407.92H1030.85V436H1024.13V407.92H1015.2V402.496H1039.78ZM1051.4 407.92V416.32H1062.68V421.648H1051.4V430.528H1064.12V436H1044.68V402.448H1064.12V407.92H1051.4ZM1100.32 402.496L1088.03 436H1079.87L1067.59 402.496H1074.79L1084 429.136L1093.17 402.496H1100.32ZM1111.07 407.92V416.32H1122.35V421.648H1111.07V430.528H1123.79V436H1104.35V402.448H1123.79V407.92H1111.07Z" fill="black"/>
<path d="M569.232 306.768C570.209 307.744 571.791 307.744 572.768 306.768L588.678 290.858C589.654 289.882 589.654 288.299 588.678 287.322C587.701 286.346 586.118 286.346 585.142 287.322L571 301.464L556.858 287.322C555.882 286.346 554.299 286.346 553.322 287.322C552.346 288.299 552.346 289.882 553.322 290.858L569.232 306.768ZM568.5 2V305H573.5V2L568.5 2Z" fill="#010002"/>
</svg>
